<svg xmlns="http://www.w3.org/2000/svg" xmlns:xlink="http://www.w3.org/1999/xlink" width="217.214" height="151.507" viewBox="0 0 217.214 151.507">
  <defs>
    <linearGradient id="linear-gradient" y1="0.5" x2="1" y2="0.5" gradientUnits="objectBoundingBox">
      <stop offset="0.364" stop-color="#95c93d"/>
      <stop offset="1" stop-color="#73aadc"/>
    </linearGradient>
    <clipPath id="clip-path">
      <rect id="Rectangle_290" data-name="Rectangle 290" width="8.169" height="7.999" transform="translate(0 0)" fill="#fff"/>
    </clipPath>
  </defs>
  <g id="Group_439" data-name="Group 439" transform="translate(-5.216 -18.896)">
    <g id="Group_188" data-name="Group 188" transform="translate(61.145 18.896)">
      <path id="Path_8" data-name="Path 8" d="M194.5,140.888a61.213,61.213,0,0,1,3.443-7.043,89.953,89.953,0,0,1,4.9-7.773,74.522,74.522,0,0,1,5.739-7.2,38.413,38.413,0,0,1,5.843-5.373,11.241,11.241,0,0,1,5.165-2.3,3.8,3.8,0,0,1,3.808,2.139l.209-.312a21.865,21.865,0,0,0,2.765-.209q1.616-.207,2.139.522a14.762,14.762,0,0,1,2.608,7.93h.1c0,.07-.018.1-.052.1s-.052.036-.052.1a29.944,29.944,0,0,1-.626,6.678q.626,2.4,2.87,2.035t5.478-4.851a10.361,10.361,0,0,1,3.443-3.6,2.821,2.821,0,0,1,2.5-.313,2.13,2.13,0,0,1,1.044,1.931,5.51,5.51,0,0,1-1.148,3.338,40.508,40.508,0,0,1-5.061,7.043,27.9,27.9,0,0,1-5.008,4.383,18.447,18.447,0,0,1-4.643,2.3,13.788,13.788,0,0,1-4.07.678,66.172,66.172,0,0,1-4.8,8.556,62.618,62.618,0,0,1-5.9,7.669A37.589,37.589,0,0,1,209,162.9a10.169,10.169,0,0,1-5.634,2.191,10.59,10.59,0,0,1-6.782-1.252,9.357,9.357,0,0,1-3.913-4.956,18.137,18.137,0,0,1-.783-7.878A36.842,36.842,0,0,1,194.5,140.888Zm24.937-16.8a1.139,1.139,0,0,0-1.461-.522l2.3-4.382-2.4,4.486q-.523.105-1.982,1.93t-3.235,4.487q-1.775,2.661-3.548,5.634a37,37,0,0,0-2.713,5.374q0-.1-.365.782t-.887,2.348q-.523,1.462-.991,3.13a19.216,19.216,0,0,0-.626,3.13,5.146,5.146,0,0,0,.209,2.4,1.4,1.4,0,0,0,1.618.834,5.551,5.551,0,0,0,2.973-1.669,31.75,31.75,0,0,0,3.5-3.808,41,41,0,0,0,3.287-4.852,36.9,36.9,0,0,0,2.348-4.7,31.258,31.258,0,0,0,1.148-3.234,14.333,14.333,0,0,1-.469-4.9A26.9,26.9,0,0,1,219.435,124.089Z" transform="translate(-191.782 -83.513)" fill="#94c83d"/>
      <path id="Path_9" data-name="Path 9" d="M338.438,116.2a3.033,3.033,0,0,1,2.817-1.618,9.314,9.314,0,0,1,3.861.731,7.58,7.58,0,0,1,3.026,2.191,2.214,2.214,0,0,1,.313,2.765q-1.775,2.818-2.921,4.748t-2.087,3.6q-.939,1.671-1.826,3.391t-2.035,4.121q-2.089,4.174-3.5,7.721a55.613,55.613,0,0,0-2.087,6.1,13.017,13.017,0,0,0-.574,4.017q.1,1.462,1.148,1.46a5.53,5.53,0,0,0,3.287-1.669,37.812,37.812,0,0,0,4.122-4.278q2.191-2.607,4.434-5.9t4.382-6.521q2.137-3.233,3.913-6.156t2.921-4.9a9.788,9.788,0,0,1,2.87-3.287,3.673,3.673,0,0,1,2.608-.782,1.757,1.757,0,0,1,1.409,1.461,5.014,5.014,0,0,1-.626,3.234,115,115,0,0,1-8.243,14.19A138.049,138.049,0,0,1,346,153.556a66.972,66.972,0,0,1-9.182,9.025q-4.331,3.392-6.938,3.078a8.745,8.745,0,0,1-5.113-2.244,13.485,13.485,0,0,1-2.818-5.269,6.938,6.938,0,0,1,.1-3.13,67.247,67.247,0,0,1-6.573,7.147q-2.923,2.66-4.8,2.452a8.233,8.233,0,0,1-4.539-1.773,9.9,9.9,0,0,1-2.608-3.339,10.866,10.866,0,0,1-1.044-3.756,11.973,11.973,0,0,1,.052-3.026,35.152,35.152,0,0,1,2.191-7.251,92.752,92.752,0,0,1,4.017-8.556q2.348-4.433,5.165-8.713t5.582-7.773a41.561,41.561,0,0,1,5.374-5.739,9.96,9.96,0,0,1,4.591-2.556,9.588,9.588,0,0,1,3.965,1.773,13.889,13.889,0,0,1,3.965,4.278,5.351,5.351,0,0,1,.522-.991A5.453,5.453,0,0,0,338.438,116.2Zm-16.382,38.815a45.05,45.05,0,0,1,1.408-5.27q.991-3.076,2.4-6.625t3.026-7.356q1.617-3.807,3.391-7.461a18.835,18.835,0,0,0,1.044-3.808q.313-1.93-.522-2.035-1.045-.1-3.287,2.243a63.237,63.237,0,0,0-4.852,5.843q-2.609,3.5-5.165,7.617t-4.33,7.669a24.753,24.753,0,0,0-2.243,5.895q-.47,2.347,1.2,2.348a4.9,4.9,0,0,0,2.4-1.461,35.358,35.358,0,0,0,3.913-4.226,77.022,77.022,0,0,0,4.8-6.73,95.07,95.07,0,0,0,5.061-8.973,4.053,4.053,0,0,1,.156,2.5q-.262,1.878-.626,4.017t-.574,4.017a4.176,4.176,0,0,0,.208,2.5Z" transform="translate(-269.256 -84.182)" fill="#94c83d"/>
      <path id="Path_10" data-name="Path 10" d="M462.671,100.164a6.342,6.342,0,0,1-5.634-4.747,25.917,25.917,0,0,1-.626-10.695,80.43,80.43,0,0,1,3.182-14.452,159.4,159.4,0,0,1,5.843-15.912q3.39-7.928,7.3-15.025a105.759,105.759,0,0,1,7.565-12,33.755,33.755,0,0,1,5.425-6,11.1,11.1,0,0,1,4.017-2.243,5.415,5.415,0,0,1,3.078.052q1.355.47,2.609.783a8.293,8.293,0,0,1,3.965,4.121q1.147,2.66-.835,6.834a113.862,113.862,0,0,1-7.252,13.043,119.675,119.675,0,0,1-7.565,10.434q-3.756,4.592-7.147,7.982t-5.791,5.687q-1.565,4.382-2.817,8.4t-1.878,7.042a22.027,22.027,0,0,0-.574,4.852q.051,1.827,1.2,1.826a5.334,5.334,0,0,0,3.234-1.669,41.01,41.01,0,0,0,4.069-4.278q2.191-2.607,4.487-5.9t4.435-6.521q2.137-3.233,3.913-6.156t2.921-4.9a8.976,8.976,0,0,1,2.922-3.235,3.93,3.93,0,0,1,2.661-.73,1.739,1.739,0,0,1,1.409,1.409,4.679,4.679,0,0,1-.731,3.182q-4.905,8.975-9.86,16.225a130.481,130.481,0,0,1-9.443,12.364,52.55,52.55,0,0,1-8.138,7.773Q464.965,100.373,462.671,100.164Zm19.3-57.8q-1.462,2.714-3.026,6.052t-3.235,7.2a130.277,130.277,0,0,0,8.973-11.582,99.145,99.145,0,0,0,5.321-8.66,31.3,31.3,0,0,0,2.4-5.374q.521-1.824.209-1.826-1.15.105-4.017,3.652A70.428,70.428,0,0,0,481.974,42.36Z" transform="translate(-376.901 -18.896)" fill="#94c83d"/>
      <path id="Path_11" data-name="Path 11" d="M558.4,116.2a3.034,3.034,0,0,1,2.817-1.618,9.312,9.312,0,0,1,3.861.731,7.573,7.573,0,0,1,3.026,2.191,2.215,2.215,0,0,1,.313,2.765q-1.776,2.818-2.922,4.748t-2.087,3.6q-.939,1.671-1.826,3.391t-2.035,4.121q-2.089,4.174-3.5,7.721a55.711,55.711,0,0,0-2.087,6.1,13.049,13.049,0,0,0-.574,4.017q.1,1.462,1.148,1.46a5.531,5.531,0,0,0,3.286-1.669,37.812,37.812,0,0,0,4.122-4.278q2.191-2.607,4.435-5.9t4.382-6.521q2.137-3.233,3.913-6.156t2.922-4.9a9.782,9.782,0,0,1,2.869-3.287,3.672,3.672,0,0,1,2.609-.782,1.757,1.757,0,0,1,1.408,1.461,5.012,5.012,0,0,1-.626,3.234,114.947,114.947,0,0,1-8.243,14.19,138.125,138.125,0,0,1-9.651,12.73,66.958,66.958,0,0,1-9.182,9.025q-4.331,3.392-6.938,3.078a8.744,8.744,0,0,1-5.113-2.244,13.483,13.483,0,0,1-2.817-5.269,6.931,6.931,0,0,1,.1-3.13,67.217,67.217,0,0,1-6.574,7.147q-2.922,2.66-4.8,2.452a8.232,8.232,0,0,1-4.539-1.773A9.9,9.9,0,0,1,523.5,159.5a10.858,10.858,0,0,1-1.044-3.756,11.947,11.947,0,0,1,.052-3.026,35.127,35.127,0,0,1,2.191-7.251,92.727,92.727,0,0,1,4.017-8.556q2.348-4.433,5.165-8.713t5.582-7.773a41.58,41.58,0,0,1,5.373-5.739,9.963,9.963,0,0,1,4.591-2.556,9.583,9.583,0,0,1,3.965,1.773,13.889,13.889,0,0,1,3.965,4.278,5.4,5.4,0,0,1,.522-.991A5.417,5.417,0,0,0,558.4,116.2Zm-16.382,38.815a44.9,44.9,0,0,1,1.409-5.27q.99-3.076,2.4-6.625t3.026-7.356q1.616-3.807,3.391-7.461a18.783,18.783,0,0,0,1.043-3.808q.313-1.93-.522-2.035-1.044-.1-3.286,2.243a63.234,63.234,0,0,0-4.852,5.843q-2.61,3.5-5.165,7.617t-4.331,7.669a24.791,24.791,0,0,0-2.243,5.895q-.469,2.347,1.2,2.348a4.9,4.9,0,0,0,2.4-1.461,35.336,35.336,0,0,0,3.913-4.226,76.938,76.938,0,0,0,4.8-6.73,95,95,0,0,0,5.061-8.973,4.049,4.049,0,0,1,.157,2.5q-.261,1.878-.626,4.017t-.574,4.017a4.18,4.18,0,0,0,.209,2.5Z" transform="translate(-423.278 -84.182)" fill="#94c83d"/>
    </g>
    <g id="Group_189" data-name="Group 189" transform="translate(8.276 24.565)">
      <path id="Path_12" data-name="Path 12" d="M43,145.372q-.118-13.045-.234-23.269t-.117-17.351l-2.342,2.825q-2.81,7.666-5.27,14.66t-4.274,12.24q-1.817,5.245-2.869,8.474a34.93,34.93,0,0,0-1.054,3.5q0,1.479-1.932.74a16.439,16.439,0,0,1-4.1-2.421,37.106,37.106,0,0,1-3.923-3.5q-1.756-1.815-1.405-2.622-.351-.268,1.288-5.313t4.45-13.114q2.81-8.07,6.616-18.427t7.846-21.251q4.04-10.895,7.963-21.52t7.2-19.233q.351-1.614,3.045-1.883a21.777,21.777,0,0,1,5.621.2,14.52,14.52,0,0,1,4.918,1.614q1.99,1.144.937,2.488-.939,1.885-2.459,5.514T59.456,56.2Q57.523,61.039,55.3,66.89T50.731,79.2q6.205-7.4,12-14.324T72.922,52.633q4.391-5.312,7.085-8.676a31.085,31.085,0,0,0,2.81-3.766q.584-1.614,3.63-1.614a26.441,26.441,0,0,1,6.323.807,33.452,33.452,0,0,1,5.8,1.95q2.517,1.144,2.049,1.682,0,.539-3.923,4.64t-10.3,10.559Q80,64.671,71.985,72.943t-16.1,17.014q.115,2.692.585,6.994t1,9.416q.527,5.113,1.23,10.558t1.347,10.424q.642,4.977,1.229,9.012t1.054,6.187q.466.536-.82,1.21a18.122,18.122,0,0,1-3.513,1.278q-2.226.605-4.918,1.144a46.761,46.761,0,0,1-4.977.739,12.838,12.838,0,0,1-3.806-.134Q42.768,146.447,43,145.372Z" transform="translate(-15.422 -37.808)" fill="#95c93d"/>
    </g>
    <g id="Group_190" data-name="Group 190" transform="translate(62.561 103.734)">
      <path id="Path_13" data-name="Path 13" d="M198.15,318.725a.823.823,0,1,1-1.645,0v-15.73a.823.823,0,1,1,1.645,0Z" transform="translate(-196.505 -302.072)" fill="#fff"/>
      <path id="Path_14" data-name="Path 14" d="M230.381,318.75a.835.835,0,0,1-.848.823h-.224a.9.9,0,0,1-.848-.474l-8.526-14.035v13.661a.823.823,0,1,1-1.646,0v-15.73a.863.863,0,0,1,.873-.848h.249a.918.918,0,0,1,.873.5l8.451,13.911V302.995a.823.823,0,1,1,1.645,0Z" transform="translate(-211.759 -302.072)" fill="#fff"/>
      <path id="Path_15" data-name="Path 15" d="M272.242,314.163a.838.838,0,0,1,.923.748,3.8,3.8,0,0,0,3.889,2.966c2.593,0,3.939-1.471,4.213-2.817.324-2.119-1.321-3.191-3.266-3.64l-2.319-.523c-3.565-.8-4.038-2.867-4.038-4.313,0-2.792,2.642-4.687,5.384-4.687s4.911,1.571,5.31,4.064a.833.833,0,0,1-.673.972.794.794,0,0,1-.947-.723,3.448,3.448,0,0,0-3.69-2.667c-1.895,0-3.739,1.222-3.739,3.041,0,.9.324,2.169,2.742,2.718l2.344.523c2.742.623,5.011,2.244,4.512,5.534-.4,1.994-2.294,4.163-5.833,4.163a5.409,5.409,0,0,1-5.484-4.412A.812.812,0,0,1,272.242,314.163Z" transform="translate(-249.059 -301.897)" fill="#fff"/>
      <path id="Path_16" data-name="Path 16" d="M333.569,313.64a6.083,6.083,0,0,1-12.166,0V302.995a.823.823,0,1,1,1.646,0V313.64a4.437,4.437,0,0,0,8.874,0V302.995a.823.823,0,1,1,1.646,0Z" transform="translate(-283.961 -302.072)" fill="#fff"/>
      <path id="Path_17" data-name="Path 17" d="M378.632,319.448a.874.874,0,0,1-.848-.847V302.995a.823.823,0,1,1,1.645,0V317.8h6.557a.823.823,0,1,1,0,1.645Z" transform="translate(-323.44 -302.072)" fill="#fff"/>
      <path id="Path_18" data-name="Path 18" d="M425.25,318.451a.808.808,0,0,1-.474,1.072.822.822,0,0,1-1.072-.5l-1.57-4.088h-7.953l-1.57,4.088a.822.822,0,0,1-1.072.5.808.808,0,0,1-.474-1.072l5.958-15.531a1.058,1.058,0,0,1,1.072-.773h.125a1.058,1.058,0,0,1,1.072.773Zm-7.08-13.886-3.391,8.825h6.781Z" transform="translate(-346.7 -302.072)" fill="#fff"/>
      <path id="Path_19" data-name="Path 19" d="M464.644,304.209v14.808a.823.823,0,1,1-1.645,0V304.209h-4.787a.823.823,0,1,1,0-1.646H469.43a.823.823,0,1,1,0,1.646Z" transform="translate(-379.164 -302.363)" fill="#fff"/>
      <path id="Path_20" data-name="Path 20" d="M511.814,318.725a.823.823,0,1,1-1.645,0v-15.73a.823.823,0,1,1,1.645,0Z" transform="translate(-416.139 -302.072)" fill="#fff"/>
      <path id="Path_21" data-name="Path 21" d="M536.922,301.9a8.815,8.815,0,1,1-8.626,8.825A8.663,8.663,0,0,1,536.922,301.9Zm0,15.98a7.17,7.17,0,1,0-6.98-7.155A7.013,7.013,0,0,0,536.922,317.877Z" transform="translate(-428.832 -301.897)" fill="#fff"/>
      <path id="Path_22" data-name="Path 22" d="M610.654,318.75a.835.835,0,0,1-.847.823h-.225a.9.9,0,0,1-.847-.474l-8.526-14.035v13.661a.823.823,0,1,1-1.646,0v-15.73a.862.862,0,0,1,.873-.848h.25a.917.917,0,0,1,.872.5l8.451,13.911V302.995a.823.823,0,1,1,1.645,0Z" transform="translate(-478.034 -302.072)" fill="#fff"/>
    </g>
    <path id="Path_23" data-name="Path 23" d="M164.539,392.1a70.938,70.938,0,0,1-24-3.53c-3.262-1.1-15.36-2.506-18.772-2.616C99.1,385.228,43.5,391.539,5.216,424.525c36.711-17.293,87.139-5.764,87.139-5.764s48.85,14.651,72.616,5.764,12.249-39.47,48.08-35.858c-19-2.767-37.659,5.577-55.122,10.759-15.715,4.664-37.2,7.283-47.849,7.694-11.038.425-20.365.815-20.365.815-6.749-.142-19.145-.853-19.145-.853S122.07,407.591,164.539,392.1Z" transform="translate(0 -256.983)" fill="url(#linear-gradient)"/>
    <g id="Group_456" data-name="Group 456" transform="translate(198.217 113.754)">
      <g id="Group_456-2" data-name="Group 456" transform="translate(0 0)" clip-path="url(#clip-path)">
        <path id="Path_2789" data-name="Path 2789" d="M8.169,3.976A4,4,0,0,1,4.1,8,4.03,4.03,0,0,1,0,3.976,4.021,4.021,0,0,1,4.1,0,3.985,3.985,0,0,1,8.169,3.976m-7.151,0a3.08,3.08,0,0,0,3.1,3.175A3.044,3.044,0,0,0,7.151,4a3.069,3.069,0,1,0-6.133-.024M3.466,6.061H2.545V2.086a8.049,8.049,0,0,1,1.527-.121,2.478,2.478,0,0,1,1.382.291,1.1,1.1,0,0,1,.388.873,1.018,1.018,0,0,1-.824.921V4.1a1.173,1.173,0,0,1,.727.97,3.04,3.04,0,0,0,.291.994H5.042a3.408,3.408,0,0,1-.315-.97c-.073-.436-.315-.63-.824-.63H3.466Zm.024-2.254h.436c.509,0,.921-.17.921-.582,0-.364-.267-.606-.848-.606a2.2,2.2,0,0,0-.509.049Z" transform="translate(0 -0.001)" fill="#fff"/>
      </g>
    </g>
  </g>
</svg>
