<svg xmlns="http://www.w3.org/2000/svg" width="17" height="16.994" viewBox="0 0 17 16.994">
  <g id="Group_238" data-name="Group 238" transform="translate(747.895 285.299)">
    <path id="Path_127" data-name="Path 127" d="M-730.895-283.058A14.753,14.753,0,0,1-745.656-268.3a1.513,1.513,0,0,1-1.481-1.179l-.72-3.127a1.518,1.518,0,0,1,.883-1.736l3.373-1.444a1.524,1.524,0,0,1,1.773.435l1.086,1.328a10.324,10.324,0,0,0,4.124-4.12l-1.328-1.086a1.523,1.523,0,0,1-.435-1.773l1.444-3.37a1.515,1.515,0,0,1,1.736-.883l3.127.72A1.514,1.514,0,0,1-730.895-283.058Zm-1.594.06-3.011-.694-1.4,3.26,2.261,1.849a12.033,12.033,0,0,1-6.541,6.541l-1.849-2.261-3.26,1.4.694,3.011A13.164,13.164,0,0,0-732.488-283Z" fill="#fff"/>
  </g>
</svg>
