<svg xmlns="http://www.w3.org/2000/svg" xmlns:xlink="http://www.w3.org/1999/xlink" width="69.013" height="73.813" viewBox="0 0 69.013 73.813">
  <defs>
    <clipPath id="clip-path">
      <rect id="Rectangle_319" data-name="Rectangle 319" width="68.413" height="67.413" transform="translate(-4 -3)" fill="#76adc7" stroke="#76adc7" stroke-width="1"/>
    </clipPath>
  </defs>
  <g id="Group_1509" data-name="Group 1509" transform="translate(-1280 -3862.587)">
    <ellipse id="Ellipse_78" data-name="Ellipse 78" cx="34" cy="2.5" rx="34" ry="2.5" transform="translate(1280 3931.4)" fill="#7eb4a3" opacity="0.32"/>
    <g id="Ellipse_82" data-name="Ellipse 82" transform="translate(1311 3879)" fill="#94c83f" stroke="#707070" stroke-width="1">
      <circle cx="4.5" cy="4.5" r="4.5" stroke="none"/>
      <circle cx="4.5" cy="4.5" r="4" fill="none"/>
    </g>
    <g id="Group_559" data-name="Group 559" transform="translate(1284.6 3865.583)">
      <g id="Group_558" data-name="Group 558" transform="translate(0 0.004)" clip-path="url(#clip-path)">
        <path id="Path_2858" data-name="Path 2858" d="M455.045,235.086a5.035,5.035,0,1,0-3.56-1.475,5.034,5.034,0,0,0,3.56,1.475m0-8.63a3.6,3.6,0,1,1-2.543,1.053,3.6,3.6,0,0,1,2.543-1.053" transform="translate(-424.119 -212.071)" fill="#76adc7" stroke="#76adc7" stroke-width="1"/>
        <path id="Path_2859" data-name="Path 2859" d="M60.073,18.394,30.586.112a.72.72,0,0,0-.76,0L.34,18.394a.719.719,0,0,0-.183,1.06l3.179,3.984a.719.719,0,0,0,.945.16l.754-.473V59.7a.719.719,0,0,0,.719.719H54.659a.719.719,0,0,0,.719-.719V23.125l.754.473h0a.719.719,0,0,0,.945-.16l3.179-3.984a.719.719,0,0,0-.183-1.06ZM50.344,28.772H10.069V25.9H50.344ZM42.05,41.718h1.821a.719.719,0,0,1,0,1.438h-1.41ZM40.4,41.2l.561,1.96H19.448l1.007-3.54A5.055,5.055,0,0,1,25.3,35.964h9.813a5.054,5.054,0,0,1,4.84,3.652Zm-22.453,1.96h-1.41a.719.719,0,0,1,0-1.438h1.821Zm.826,1.438h22.86l2.683,2.5.02.019h0a.72.72,0,0,1,.25.545v3.413a2.158,2.158,0,0,1-2.158,2.158H17.98a2.158,2.158,0,0,1-2.158-2.158V47.654a.736.736,0,0,1,.27-.564Zm4.436,10.069H37.2v3.6h0a2.129,2.129,0,0,0,.132.719H23.081a2.129,2.129,0,0,0,.132-.719Zm-4.027,4.315h0a.719.719,0,0,1-.719-.719v-3.6h3.308v3.6a.719.719,0,0,1-.719.719Zm20.173,0h0a.719.719,0,0,1-.719-.719v-3.6h3.308v3.6a.719.719,0,0,1-.719.719Zm3.9,0h0a2.1,2.1,0,0,0,.134-.719v-3.74a3.6,3.6,0,0,0,2.641-3.452V47.654a2.157,2.157,0,0,0-.739-1.621l-1.54-1.438h.122a2.158,2.158,0,1,0,0-4.315H41.64l-.3-1.059h0a6.5,6.5,0,0,0-6.224-4.695H25.3a6.5,6.5,0,0,0-6.224,4.695l-.3,1.059H16.541a2.158,2.158,0,1,0,0,4.315h.124l-1.532,1.424a2.157,2.157,0,0,0-.749,1.636v3.413a3.6,3.6,0,0,0,2.642,3.452v3.74a2.1,2.1,0,0,0,.134.719H10.069V30.211H50.343V58.978ZM53.939,22.224V58.978H51.782v-33.8a.719.719,0,0,0-.719-.719H9.349a.719.719,0,0,0-.719.719v33.8H6.473V22.224l23.733-14.9Zm2.414-.184L30.589,5.869a.719.719,0,0,0-.765,0L4.059,22.04,1.786,19.19,30.206,1.57l28.42,17.62Z" transform="translate(0 -0.004)" fill="#76adc7" stroke="#76adc7" stroke-width="1"/>
        <path id="Path_2860" data-name="Path 2860" d="M425.73,851.47H435.8a.732.732,0,0,0,.719-.734.719.719,0,0,0-.719-.719H425.73a.731.731,0,0,0-.719.734.719.719,0,0,0,.719.719" transform="translate(-400.558 -801.111)" fill="#76adc7" stroke="#76adc7" stroke-width="1"/>
        <path id="Path_2861" data-name="Path 2861" d="M652.888,805.771a2.877,2.877,0,1,0-2.034-.843,2.876,2.876,0,0,0,2.034.843m0-4.315a1.439,1.439,0,1,1-1.017.421,1.438,1.438,0,0,1,1.017-.421" transform="translate(-612.612 -753.988)" fill="#76adc7" stroke="#76adc7" stroke-width="1"/>
        <path id="Path_2862" data-name="Path 2862" d="M302.888,805.771a2.877,2.877,0,1,0-2.034-.843,2.877,2.877,0,0,0,2.034.843m0-4.315a1.439,1.439,0,1,1-1.017.421,1.438,1.438,0,0,1,1.017-.421" transform="translate(-282.75 -753.988)" fill="#76adc7" stroke="#76adc7" stroke-width="1"/>
      </g>
    </g>
  </g>
</svg>
