<svg xmlns="http://www.w3.org/2000/svg" width="93.873" height="94.055" viewBox="0 0 93.873 94.055">
  <g id="Group_211" data-name="Group 211" transform="translate(-950.802 -41.679)">
    <path id="Path_98" data-name="Path 98" d="M975.46,386.808h17.027V353.592H984.2Z" transform="translate(-20.158 -254.987)" fill="#fff"/>
    <path id="Path_101" data-name="Path 101" d="M1133.521,123.95a9.079,9.079,0,0,1,4.731-8.1c2.815-1.457,6.228-1.2,9.522.659a13.154,13.154,0,0,1,2.383-1.055,8.792,8.792,0,0,0-4.239-7.389c-3.134-1.757-7.246-1.178-11.3,1.6a1.922,1.922,0,0,1-2.2,0c-3.932-2.675-7.965-3.314-11.059-1.717-2.735,1.4-4.412,4.412-4.491,8.025-.18,7.525,6.028,15.73,16.668,22.1a55.179,55.179,0,0,0,4.6-3.056C1133.985,130.282,1133.467,126.011,1133.521,123.95Z" transform="translate(-135.76 -53.449)" fill="#fff"/>
    <path id="Path_102" data-name="Path 102" d="M1234.681,186.612a31.753,31.753,0,0,0,5.195,3.921c6.607-4.052,10.46-9.162,10.34-13.814a5.27,5.27,0,0,0-2.615-4.731c-1.816-.938-4.232-.539-6.627,1.1a1.922,1.922,0,0,1-2.2,0,8.157,8.157,0,0,0-4.491-1.6h0a4.493,4.493,0,0,0-2.136.5,5.287,5.287,0,0,0-2.615,4.731c-.068,3.15,1.67,6.509,4.85,9.609A1.95,1.95,0,0,1,1234.681,186.612Z" transform="translate(-227.861 -106.12)" fill="#94c83f"/>
    <path id="Path_103" data-name="Path 103" d="M1041.438,305.5a7.705,7.705,0,0,1-9.8-1.915,7.637,7.637,0,0,0-9.162.16L1008.866,314.2a7.766,7.766,0,0,0-3.318-.742H976.262v-3.912a1.959,1.959,0,0,0-1.956-1.956H962.548a1.948,1.948,0,0,0-1.9,1.457L950.87,346.2a1.911,1.911,0,0,0,.339,1.7,2,2,0,0,0,1.557.758h21.519a1.977,1.977,0,0,0,1.976-1.956v-3.79l31.022,1.834h.12a1.919,1.919,0,0,0,1.238-.439l33.136-26.509a7.7,7.7,0,0,0-.34-12.3Zm-16.588,1.358a3.773,3.773,0,0,1,4.511-.08,3.62,3.62,0,0,1,.675.6L1013.3,320.26a7.774,7.774,0,0,0-1.367-3.484Zm-52.521,37.886H955.3l8.743-33.216h8.284Zm67.013-30-32.557,26.049-30.521-1.8V327.153c0-.017,0-.034,0-.052v-9.73h29.286a3.886,3.886,0,0,1,2.17.66,2.043,2.043,0,0,0,.249.185,3.908,3.908,0,0,1-2.419,6.98h-21.5a1.956,1.956,0,0,0,0,3.913h21.5a7.781,7.781,0,0,0,4.711-1.584l.019-.013,23.251-17.9a1.91,1.91,0,0,0,.456-.351l.667-.514a3.8,3.8,0,0,1,4.691,5.989Z" transform="translate(0 -212.918)" fill="#76adc7"/>
    <path id="Path_104" data-name="Path 104" d="M1256.118,252.8q.146.142.3.283A1.945,1.945,0,0,0,1256.118,252.8Z" transform="translate(-249.594 -172.588)"/>
    <path id="Path_105" data-name="Path 105" d="M1144.41,106.455a9.079,9.079,0,0,0-4.731-8.1,8.566,8.566,0,0,0-3.265-.9,12.58,12.58,0,0,0-6.216-10.3c-4.152-2.315-9.3-1.916-14.292,1.078-4.831-2.895-9.861-3.354-13.953-1.258-4.032,2.076-6.507,6.348-6.627,11.418a22.2,22.2,0,0,0,4.431,13.055c3.394,4.831,8.484,9.242,15.171,13.075a1.889,1.889,0,0,0,.978.26h0a2.355,2.355,0,0,0,1-.24,61.4,61.4,0,0,0,6.462-4.256,38.611,38.611,0,0,0,5.814,4.036,1.891,1.891,0,0,0,.978.26h0a1.943,1.943,0,0,0,.978-.26C1143.332,117.314,1144.489,109.489,1144.41,106.455Zm-7.948-7.44q.008-.53-.016-1.049Q1136.47,98.484,1136.462,99.014Zm-3.408,1.753a1.984,1.984,0,0,0,1.355.636,1.92,1.92,0,0,0,.2,0,1.92,1.92,0,0,1-.2,0,1.984,1.984,0,0,1-1.355-.636,1.928,1.928,0,0,1-.225-.3A1.928,1.928,0,0,0,1133.054,100.768Zm-17.13,19.8c-10.64-6.368-16.848-14.572-16.668-22.1.08-3.613,1.757-6.627,4.491-8.025,3.094-1.6,7.126-.958,11.059,1.717a1.922,1.922,0,0,0,2.2,0c4.052-2.775,8.164-3.354,11.3-1.6a8.792,8.792,0,0,1,4.239,7.389h0a13.149,13.149,0,0,0-2.383,1.055c-3.294-1.856-6.707-2.116-9.522-.659a9.079,9.079,0,0,0-4.731,8.1c-.054,2.061.464,6.333,4.624,11.057h0A55.2,55.2,0,0,1,1115.925,120.568Zm5.889-4.041c.14-.11.282-.22.419-.331a1.962,1.962,0,0,1,.432-.266,1.962,1.962,0,0,0-.432.266C1122.1,116.307,1121.953,116.416,1121.814,116.527Zm1.161-.705a1.972,1.972,0,0,1,.482-.063A1.972,1.972,0,0,0,1122.974,115.821Zm7.182,4.547a31.755,31.755,0,0,1-5.195-3.921q-.15-.141-.3-.283c-3.18-3.1-4.917-6.459-4.85-9.609a5.286,5.286,0,0,1,2.615-4.731,4.494,4.494,0,0,1,2.136-.5h0a8.157,8.157,0,0,1,4.491,1.6,1.922,1.922,0,0,0,2.2,0c2.4-1.637,4.811-2.036,6.627-1.1a5.271,5.271,0,0,1,2.615,4.731C1140.617,111.206,1136.764,116.316,1130.157,120.369Z" transform="translate(-118.143 -35.955)" fill="#76adc7"/>
    <path id="Path_108" data-name="Path 108" d="M1008.864,213.259c4.567.913,4.95,1.3,5.864,5.863h0a1.391,1.391,0,0,0,2.727,0c.914-4.566,1.3-4.949,5.864-5.863h0a1.391,1.391,0,0,0,0-2.727c-4.566-.913-4.95-1.3-5.864-5.865a1.391,1.391,0,0,0-2.727,0c-.914,4.567-1.3,4.951-5.864,5.865a1.391,1.391,0,0,0,0,2.727Zm7.227-3.648a5.394,5.394,0,0,0,2.284,2.285,2.285,2.285,0,0,1-4.569,0A5.4,5.4,0,0,0,1016.091,209.611Z" transform="translate(-46.552 -132.328)" fill="#76adc7"/>
    <path id="Path_109" data-name="Path 109" d="M1335.593,52.858a5.589,5.589,0,0,0,0-11.179h0a5.589,5.589,0,1,0,0,11.178Zm-1.694-7.283a2.4,2.4,0,1,1,1.694,4.089h0a2.4,2.4,0,0,1-1.694-4.089Z" transform="translate(-309.996)" fill="#76adc7"/>
  </g>
</svg>
