<svg xmlns="http://www.w3.org/2000/svg" width="49.826" height="92.977" viewBox="0 0 49.826 92.977">
  <g id="Group_212" data-name="Group 212" transform="translate(-813 -2895.023)">
    <rect id="Rectangle_148" data-name="Rectangle 148" width="43" height="82" transform="translate(816 2906)" fill="#fff"/>
    <path id="Path_73" data-name="Path 73" d="M0,0H18.119V6.794H0Z" transform="translate(828.852 2899.672)" fill="#94c83f"/>
    <path id="Path_62" data-name="Path 62" d="M1250.808,443.616h0v-5.46h0Z" transform="translate(-387.984 2492.611)" fill="#fff"/>
    <path id="Path_63" data-name="Path 63" d="M1168.4,491.781v0Z" transform="translate(-326.906 2452.865)" fill="#fff"/>
    <path id="Path_67" data-name="Path 67" d="M1108.137,313.773a2.265,2.265,0,0,0-2.265-2.265h-9.059v-8.982a2.316,2.316,0,0,0-2.326-2.462l-17.665.119H1071.9a2.265,2.265,0,0,0-2.265,2.265v9.059h-9.059a2.265,2.265,0,0,0-2.265,2.265v77a2.265,2.265,0,0,0,2.265,2.265h45.3a2.265,2.265,0,0,0,2.265-2.265V341.267h0v-5.46h0v-5.815h0Zm-33.972-9.06h18.119v6.794h-18.119Zm29.443,83.8h-40.767V316.037h40.767Z" transform="translate(-245.313 2594.959)" fill="#76adc7"/>
    <path id="Path_68" data-name="Path 68" d="M1095.344,504.694h0v0Z" transform="translate(-272.76 2443.297)"/>
    <path id="Path_69" data-name="Path 69" d="M1129.036,486.227h0Z" transform="translate(-297.73 2456.983)"/>
    <path id="Path_71" data-name="Path 71" d="M1166.952,534.958h0Z" transform="translate(-325.832 2420.864)"/>
    <path id="Path_72" data-name="Path 72" d="M1170.649,517.136h0v0Z" transform="translate(-328.572 2434.073)"/>
    <path id="Path_75" data-name="Path 75" d="M993.737-190.872h0l0,0,0,0h0a8.426,8.426,0,0,0-2.7-1.66q-1.314-.5-3.4-1.083v-6.618a3.722,3.722,0,0,1,.95.7,3.871,3.871,0,0,1,.932,1.732v.005a3.5,3.5,0,0,0,1.076,1.819,2.669,2.669,0,0,0,.884.488,3.308,3.308,0,0,0,1.039.156,2.985,2.985,0,0,0,1.146-.219,2.953,2.953,0,0,0,.965-.652,2.989,2.989,0,0,0,.651-.951,2.865,2.865,0,0,0,.221-1.122,5.215,5.215,0,0,0-.522-2.138,8.716,8.716,0,0,0-1.418-2.148h0l0,0,0,0h0a7.528,7.528,0,0,0-2.763-2.065,11.975,11.975,0,0,0-3.155-.824v-1.543a3.322,3.322,0,0,0-.1-.835,2.023,2.023,0,0,0-.225-.544,1.561,1.561,0,0,0-.638-.594,1.893,1.893,0,0,0-.857-.187,1.869,1.869,0,0,0-.767.151,1.52,1.52,0,0,0-.482.337,1.827,1.827,0,0,0-.428.766,3.361,3.361,0,0,0-.119.943v1.5a12.252,12.252,0,0,0-3.126.762,8.155,8.155,0,0,0-2.759,1.8,7.529,7.529,0,0,0-1.7,2.6,8.8,8.8,0,0,0-.564,3.208,7.9,7.9,0,0,0,1.171,4.461,7.814,7.814,0,0,0,3.019,2.677,23.08,23.08,0,0,0,3.963,1.5v7.621a3.942,3.942,0,0,1-1.075-.661,4.028,4.028,0,0,1-1.014-1.327,23.628,23.628,0,0,1-.875-2.34h0a2.665,2.665,0,0,0-1.052-1.433,3.121,3.121,0,0,0-1.785-.5,3.145,3.145,0,0,0-1.208.229,2.98,2.98,0,0,0-1,.686,3.206,3.206,0,0,0-.657.96,2.768,2.768,0,0,0-.228,1.108,7.176,7.176,0,0,0,.581,2.762,8.926,8.926,0,0,0,1.77,2.665,9.849,9.849,0,0,0,2.969,2.128,12.265,12.265,0,0,0,3.579,1.04v4.648a4.258,4.258,0,0,0,.082.888,2.137,2.137,0,0,0,.292.738,1.448,1.448,0,0,0,.638.532,2.045,2.045,0,0,0,.822.154,1.874,1.874,0,0,0,.893-.2,1.36,1.36,0,0,0,.616-.677,3.2,3.2,0,0,0,.207-.823,8.025,8.025,0,0,0,.06-1.054v-4.235a11.051,11.051,0,0,0,4.443-1.46,8.69,8.69,0,0,0,3.228-3.335,9.092,9.092,0,0,0,1.094-4.365,8.5,8.5,0,0,0-.691-3.442A7.765,7.765,0,0,0,993.737-190.872Zm-9.715-3.884a5.9,5.9,0,0,1-1.574-.966,1.82,1.82,0,0,1-.477-.729,3.251,3.251,0,0,1-.174-1.124,3.326,3.326,0,0,1,.187-1.178,1.827,1.827,0,0,1,.511-.75,5.238,5.238,0,0,1,1.529-.881Zm6.245,11.915a3.488,3.488,0,0,1-.677,1.081,3.865,3.865,0,0,1-1.106.843,5.224,5.224,0,0,1-.85.343v-6.788a6.729,6.729,0,0,1,2.032,1.148,2.269,2.269,0,0,1,.611.875,3.389,3.389,0,0,1,.214,1.258A3.4,3.4,0,0,1,990.267-182.842Z" transform="translate(-147.848 3138.114)" fill="#94c83f"/>
  </g>
</svg>
