<svg xmlns="http://www.w3.org/2000/svg" width="109" height="94.75" viewBox="0 0 109 94.75">
  <g id="Group_1466" data-name="Group 1466" transform="translate(-939 -1365.25)">
    <g id="Group_327" data-name="Group 327" transform="translate(9 62)">
      <g id="Group_309" data-name="Group 309" transform="translate(1019.594 1380.604)">
        <path id="Path_205" data-name="Path 205" d="M2.491-61.294A11.072,11.072,0,0,0-8.566-72.356,11.081,11.081,0,0,0-19.641-61.294,11.079,11.079,0,0,0-8.566-50.237,11.07,11.07,0,0,0,2.491-61.294Z" transform="translate(-26.82 -2.281)" fill="none" stroke="#707070" stroke-width="1.5"/>
        <path id="Path_206" data-name="Path 206" d="M.477,2.593H1.866V-5.345a14.832,14.832,0,0,0-14.983-15,15.018,15.018,0,0,0-15,15V2.593H.477Z" transform="translate(-22.269 -30.205)" fill="none" stroke="#707070" stroke-width="1.5"/>
        <path id="Path_207" data-name="Path 207" d="M-31.381-25.64H.559a.988.988,0,0,0,.993-.98V-35.55a16.918,16.918,0,0,0-9.22-15.083l-2.019-1.041L-7.842-53A13.068,13.068,0,0,0-2.368-63.575,13.044,13.044,0,0,0-15.4-76.6,13.044,13.044,0,0,0-28.426-63.575,13.069,13.069,0,0,0-22.953-53l1.846,1.324-2.02,1.04A16.921,16.921,0,0,0-32.365-35.55v8.931A.984.984,0,0,0-31.381-25.64Zm4.909-37.935A11.081,11.081,0,0,1-15.4-74.637,11.072,11.072,0,0,1-4.34-63.575,11.07,11.07,0,0,1-15.4-52.518,11.079,11.079,0,0,1-26.473-63.575ZM-30.4-29V-35.55a15.018,15.018,0,0,1,15-15,14.832,14.832,0,0,1,14.983,15v7.938H-30.4Z" transform="translate(-19.988)" fill="#76adc7" stroke="#76adc7" stroke-width="1.5"/>
        <path id="Path_208" data-name="Path 208" d="M-48.742,49.537a1.012,1.012,0,0,0-.155-.078l-4.292-1.7-.328-.13-.226-.271-2.962-3.541a.991.991,0,0,0-.583-.346.975.975,0,0,0-.144-.01h-.031a.984.984,0,0,0-.738.362l-2.949,3.558-.225.27-.326.132-4.292,1.729a.983.983,0,0,0-.526,1.28.97.97,0,0,0,.078.151l2.478,3.91.188.3.025.351.315,4.588a.986.986,0,0,0,.979.919l.069,0a.96.96,0,0,0,.174-.027l4.46-1.152.342-.088.342.086,4.491,1.121a.974.974,0,0,0,.235.029.981.981,0,0,0,.953-.748.993.993,0,0,0,.027-.173l.287-4.613.022-.352.188-.3,2.452-3.912A.982.982,0,0,0-48.742,49.537Z" transform="translate(-1.611 -64.465)" fill="#94c83f" stroke="#707070" stroke-width="1.5"/>
        <path id="Path_209" data-name="Path 209" d="M2.337,49.537a1.012,1.012,0,0,0-.155-.078l-4.292-1.7-.328-.13-.226-.271-2.962-3.541a.991.991,0,0,0-.583-.346l-.144-.01h-.031a.985.985,0,0,0-.738.361l-2.949,3.558-.225.27-.326.132-4.292,1.729a.983.983,0,0,0-.526,1.28.971.971,0,0,0,.078.151l2.478,3.91.188.3.024.351.315,4.588a.986.986,0,0,0,.979.919l.069,0a.96.96,0,0,0,.174-.027l4.46-1.152.342-.088.342.086L-1.5,60.949a.971.971,0,0,0,.235.029.981.981,0,0,0,.953-.748.993.993,0,0,0,.027-.173L0,55.444l.022-.352.188-.3,2.452-3.912A.983.983,0,0,0,2.337,49.537Z" transform="translate(-29.035 -64.465)" fill="#94c83f" stroke="#707070" stroke-width="1.5"/>
        <path id="Path_210" data-name="Path 210" d="M53.416,49.537a1.012,1.012,0,0,0-.155-.078l-4.292-1.7-.328-.13-.226-.271-2.962-3.541a.991.991,0,0,0-.583-.346.98.98,0,0,0-.144-.01h-.031a.985.985,0,0,0-.738.361l-2.949,3.558-.225.27-.326.132-4.292,1.729a.983.983,0,0,0-.447,1.431l2.478,3.91.188.3.024.351.315,4.588a.986.986,0,0,0,.979.919l.069,0a1.01,1.01,0,0,0,.174-.028L44.4,59.83l.342-.088.342.086,4.491,1.121a.981.981,0,0,0,1.189-.719.992.992,0,0,0,.027-.173l.287-4.613.022-.352.188-.3,2.452-3.912a.983.983,0,0,0-.327-1.345Z" transform="translate(-56.459 -64.465)" fill="#94c83f" stroke="#707070" stroke-width="1.5"/>
        <path id="Path_211" data-name="Path 211" d="M52.534,46.743a2.391,2.391,0,0,0-.374-.187l-4.292-1.7-2.962-3.541a2.372,2.372,0,0,0-1.395-.82,2.342,2.342,0,0,0-.4-.034h-.075a2.373,2.373,0,0,0-1.77.871l-2.943,3.55-4.292,1.729a2.375,2.375,0,0,0-1.1,3.462l2.479,3.911.315,4.588a2.373,2.373,0,0,0,2.366,2.213c.054,0,.108,0,.162-.006a2.383,2.383,0,0,0,.42-.067l4.468-1.154,4.491,1.122a2.371,2.371,0,0,0,2.874-1.733,2.355,2.355,0,0,0,.064-.417l.288-4.616,2.452-3.912A2.373,2.373,0,0,0,52.534,46.743Zm-.4,2.528-2.452,3.912-.188.3-.022.352-.287,4.613a.992.992,0,0,1-.027.173.981.981,0,0,1-1.189.719l-4.491-1.121-.342-.086-.342.088-4.46,1.152a1.01,1.01,0,0,1-.174.028l-.069,0a.986.986,0,0,1-.979-.919L36.8,53.894l-.024-.351-.188-.3-2.478-3.91a.984.984,0,0,1,.447-1.431l4.292-1.729.326-.132.225-.27,2.949-3.558a.985.985,0,0,1,.738-.361h.031a.98.98,0,0,1,.144.01.991.991,0,0,1,.583.346L46.8,45.751l.226.271.328.13,4.292,1.7a1.012,1.012,0,0,1,.155.078.983.983,0,0,1,.327,1.345Z" transform="translate(-54.849 -62.854)" fill="#76adc7" stroke="#76adc7" stroke-width="1.5"/>
        <path id="Path_212" data-name="Path 212" d="M-49.624,46.743A2.392,2.392,0,0,0-50,46.556l-4.292-1.7-2.962-3.541a2.371,2.371,0,0,0-1.395-.82,2.338,2.338,0,0,0-.4-.034h-.075a2.373,2.373,0,0,0-1.77.871l-2.943,3.55-4.292,1.729a2.373,2.373,0,0,0-1.291,3.1,2.4,2.4,0,0,0,.188.364l2.479,3.911.315,4.588a2.373,2.373,0,0,0,2.366,2.213c.054,0,.108,0,.162-.006a2.383,2.383,0,0,0,.42-.067l4.468-1.154,4.491,1.122a2.383,2.383,0,0,0,.572.07,2.373,2.373,0,0,0,2.3-1.8,2.4,2.4,0,0,0,.065-.417l.287-4.616,2.452-3.912A2.373,2.373,0,0,0-49.624,46.743Zm-.4,2.528-2.452,3.912-.188.3-.022.352-.287,4.613a.993.993,0,0,1-.027.173.981.981,0,0,1-.953.748.974.974,0,0,1-.235-.029l-4.491-1.121-.342-.086-.342.088-4.46,1.152A.96.96,0,0,1-64,59.4l-.069,0a.986.986,0,0,1-.979-.919l-.315-4.588-.025-.351-.188-.3-2.478-3.91a.97.97,0,0,1-.078-.151.983.983,0,0,1,.526-1.28l4.292-1.729.326-.132.225-.27,2.949-3.558a.984.984,0,0,1,.738-.362h.031a.975.975,0,0,1,.144.01.991.991,0,0,1,.583.346l2.962,3.541.226.271.328.13,4.292,1.7a1.012,1.012,0,0,1,.155.078A.982.982,0,0,1-50.026,49.271Z" transform="translate(0 -62.854)" fill="#76adc7" stroke="#76adc7" stroke-width="1.5"/>
        <path id="Path_213" data-name="Path 213" d="M1.455,46.743a2.391,2.391,0,0,0-.374-.187l-4.292-1.7-2.962-3.541a2.372,2.372,0,0,0-1.395-.82,2.338,2.338,0,0,0-.4-.034H-8.04a2.373,2.373,0,0,0-1.77.871l-2.943,3.55-4.292,1.729a2.373,2.373,0,0,0-1.291,3.1,2.443,2.443,0,0,0,.188.364l2.48,3.911.315,4.588a2.373,2.373,0,0,0,2.366,2.213c.054,0,.108,0,.162-.006a2.383,2.383,0,0,0,.42-.067l4.468-1.154,4.491,1.122a2.383,2.383,0,0,0,.572.07,2.374,2.374,0,0,0,2.3-1.8,2.355,2.355,0,0,0,.064-.417l.288-4.616L2.23,50.009A2.373,2.373,0,0,0,1.455,46.743Zm-.4,2.528L-1.4,53.183l-.188.3-.022.352-.287,4.613a.993.993,0,0,1-.027.173.981.981,0,0,1-.953.748.971.971,0,0,1-.235-.029L-7.6,58.217l-.342-.086-.342.088-4.46,1.152a.96.96,0,0,1-.174.027l-.069,0a.986.986,0,0,1-.979-.919l-.315-4.588-.024-.351-.188-.3-2.478-3.91a.971.971,0,0,1-.078-.151.983.983,0,0,1,.526-1.28l4.292-1.729.326-.132.225-.27,2.949-3.558A.985.985,0,0,1-8,41.855h.031l.144.01a.991.991,0,0,1,.583.346l2.962,3.541.226.271.328.13,4.292,1.7a1.012,1.012,0,0,1,.155.078A.983.983,0,0,1,1.053,49.271Z" transform="translate(-27.424 -62.854)" fill="#76adc7" stroke="#76adc7" stroke-width="1.5"/>
      </g>
    </g>
    <ellipse id="Ellipse_71" data-name="Ellipse 71" cx="54.5" cy="2.5" rx="54.5" ry="2.5" transform="translate(939 1455)" fill="#7eb4a3" opacity="0.32"/>
  </g>
</svg>
