<svg xmlns="http://www.w3.org/2000/svg" width="109" height="94" viewBox="0 0 109 94">
  <g id="Group_1465" data-name="Group 1465" transform="translate(-478 -1366)">
    <g id="Group_308" data-name="Group 308" transform="translate(474.967 1353.133)">
      <path id="Path_204" data-name="Path 204" d="M-23387.266-2042l-8,12.333-14.686,3.217,1.668,6.45,8.449,7-2.666,12.117,1.451,3.667h2.766l11.018-6.233,11.1,6.233,3.783-1,1.766-2.667-2.766-12.9,8.766-8.1,1.117-3.117-2.883-2.667-12.234-2-5.432-9.45Z" transform="translate(23429.033 2068.867)" fill="#94c83f"/>
      <path id="Path_203" data-name="Path 203" d="M65.77,48.361a5.176,5.176,0,0,0-2.828-8.71l-10.391-1.66a1.253,1.253,0,0,1-.915-.664l-4.79-9.369a5.176,5.176,0,0,0-9.158,0L32.9,37.327a1.257,1.257,0,0,1-.915.664L21.591,39.65a5.145,5.145,0,0,0-2.828,8.71l7.429,7.452a1.238,1.238,0,0,1,.349,1.073L24.91,67.28a5.143,5.143,0,0,0,7.411,5.384L41.7,67.9a1.242,1.242,0,0,1,1.13,0l9.382,4.762a5.145,5.145,0,0,0,7.411-5.384L57.993,56.886a1.248,1.248,0,0,1,.347-1.075Zm-10.189,4.7a5.164,5.164,0,0,0-1.439,4.431l1.632,10.393a1.248,1.248,0,0,1-1.8,1.307L44.6,64.426a5.153,5.153,0,0,0-4.659,0l-9.38,4.764a1.246,1.246,0,0,1-1.8-1.307l1.63-10.4a5.162,5.162,0,0,0-1.439-4.427l-7.431-7.45a1.246,1.246,0,0,1,.688-2.113L32.6,41.836A5.161,5.161,0,0,0,36.367,39.1l4.79-9.369a1.247,1.247,0,0,1,2.22,0l4.79,9.369a5.158,5.158,0,0,0,3.767,2.737L62.324,43.5a1.248,1.248,0,0,1,.688,2.113Zm52.59-20.331H77.09a12.381,12.381,0,0,1-9.453-4.277A33.546,33.546,0,0,0,38.885,16.926C11.462,19.5-.926,53.318,18.054,73.1c23.985,25.327,66.405.59,56.139-32.721a1.948,1.948,0,0,1,3.724-1.139c11.445,37.2-35.849,64.81-62.685,36.542C-5.984,53.684,7.894,15.921,38.505,13.05A37.431,37.431,0,0,1,70.6,25.919a8.5,8.5,0,0,0,6.494,2.914h31.081a1.95,1.95,0,0,1,0,3.9Zm-5.781,9.647h-16.6a1.948,1.948,0,0,1,0-3.9h16.6a1.948,1.948,0,0,1,0,3.9ZM96.547,52H85.818a1.948,1.948,0,0,1,0-3.9H96.547a1.948,1.948,0,0,1,0,3.9Z" transform="translate(0 0)" fill="#76adc7"/>
    </g>
    <ellipse id="Ellipse_72" data-name="Ellipse 72" cx="54.5" cy="2.5" rx="54.5" ry="2.5" transform="translate(478 1455)" fill="#7eb4a3" opacity="0.32"/>
  </g>
</svg>
