<?xml version="1.0" encoding="UTF-8"?><svg id="Layer_1" xmlns="http://www.w3.org/2000/svg" viewBox="0 0 250 250"><defs><style>.cls-1{fill:#fff;}.cls-2{fill:#76acc6;}.cls-3{fill:#94c840;}</style></defs><g id="Group_318"><path id="Path_154" class="cls-1" d="m130.45,111.58c3.01-3.01,3.01-7.9,0-10.91s-7.9-3.01-10.91,0c-3.01,3.01-3.01,7.9,0,10.91,1.45,1.45,3.41,2.26,5.45,2.26,2.05,0,4.01-.81,5.46-2.26Z"/><path id="Path_155" class="cls-1" d="m138.76,144.7h3.33c.5,0,.9-.4.9-.9v-17.1c-.01-2.58-1.91-4.77-4.47-5.13-.05,0-.11-.01-.16-.01h-30.47c-.5,0-.9.4-.9.9v21.34c0,.5.4.9.9.9h3.33c.5,0,.9-.4.9-.9v-11.05c0-.5.4-.9.9-.9h3.33c.5,0,.9.41.9.9v41.91c0,.5.4.9.9.9h3.33c.5,0,.9-.4.9-.9v-23.91c0-.5.4-.9.9-.9h3.33c.5,0,.9.4.9.9v23.91c0,.5.4.9.9.9h3.33c.5,0,.9-.4.9-.9v-41.92c0-.5.4-.9.9-.9h3.33c.5,0,.9.41.9.9v11.05c0,.5.4.91.9.91.02,0,.03,0,.05,0Z"/><path id="Path_156" class="cls-1" d="m70.08,111.27c.5,0,.9.4.9.9v62.49c0,.5.4.9.9.9h39.34c.5,0,.9-.4.9-.9v-23.91c0-.5-.4-.9-.9-.9h-2.26c-3.94,0-7.13-3.19-7.13-7.13h0v-16.02c0-5.68,4.6-10.29,10.28-10.29h2.8c.5,0,.9-.39.91-.89,0-.23-.08-.45-.24-.62-4.85-5.19-4.57-13.33.62-18.18,5.19-4.85,13.33-4.57,18.18.62,4.61,4.94,4.61,12.61,0,17.55-.34.36-.32.93.05,1.27.17.16.39.24.62.24h2.79c5.68,0,10.29,4.59,10.3,10.27v17.36c0,3.21-2.6,5.81-5.81,5.81h-3.58c-.5,0-.9.4-.9.9v23.91c0,.5.4.9.9.9h39.34c.5,0,.9-.4.9-.9v-62.49c0-.5.4-.9.9-.9h0c.5,0,.91-.39.91-.89,0-.27-.11-.53-.32-.7l-11.47-9.87c-.2-.17-.31-.42-.32-.69v-30.67c0-.5-.4-.9-.9-.9h-13.62c-.5,0-.9.4-.9.9v15.85c0,.5-.39.9-.89.91-.22,0-.44-.08-.61-.22l-26.21-22.54c-.34-.29-.84-.29-1.18,0l-54.92,47.23c-.38.32-.43.89-.11,1.27.17.2.42.32.69.32Z"/><rect id="Rectangle_164" class="cls-3" x="58.13" y="180.71" width="133.74" height="7.72" rx="2.46" ry="2.46"/><path id="Path_157" class="cls-2" d="m192.95,175.56h-7.89c-.5,0-.9-.4-.9-.9v-57.35c0-.5.4-.9.9-.9h2.17c1.85,0,3.34-1.5,3.34-3.34,0-.97-.42-1.9-1.16-2.54l-15.22-13.1c-.2-.17-.31-.42-.32-.69v-30.96c0-1.88-1.52-3.4-3.4-3.4h-19.29c-1.68,0-3.04,1.36-3.04,3.04v7.64c0,.5-.39.9-.89.91-.22,0-.44-.08-.61-.22l-19.01-16.35c-1.52-1.3-3.76-1.3-5.28,0l-62.23,53.52c-1.31,1.12-1.45,3.09-.33,4.39.59.69,1.46,1.09,2.36,1.09h2.78c.5,0,.9.4.9.9v57.35c0,.5-.4.9-.9.9h-8.39c-1.97,0-3.56,1.6-3.56,3.57h0v10.87c0,1.97,1.6,3.57,3.57,3.57h136.9c1.97,0,3.57-1.6,3.57-3.57h0v-10.38c0-2.24-1.82-4.06-4.06-4.07h0Zm-123.46-65.89l54.92-47.23c.34-.29.84-.29,1.18,0l26.21,22.54c.37.33.94.29,1.27-.08.15-.17.23-.38.22-.61v-15.84c0-.5.4-.9.9-.9h13.62c.5,0,.9.4.9.9v30.68c0,.26.12.51.32.69l11.47,9.87c.38.32.43.89.11,1.27-.17.21-.43.33-.7.32h0c-.5,0-.9.4-.9.9v62.5c0,.5-.4.9-.9.9h-39.34c-.5,0-.9-.4-.9-.9v-23.91c0-.5.4-.9.9-.9h3.58c3.21,0,5.81-2.6,5.81-5.81h0v-17.35c0-5.68-4.6-10.29-10.28-10.29h-2.8c-.5,0-.9-.39-.91-.89,0-.23.08-.45.24-.62,4.85-5.19,4.57-13.33-.62-18.18-5.19-4.85-13.33-4.57-18.18.62-4.61,4.94-4.61,12.61,0,17.55.34.36.32.93-.05,1.27-.17.16-.39.24-.62.24h-2.79c-5.68,0-10.29,4.6-10.29,10.28h0v16.03c0,3.94,3.19,7.13,7.13,7.13h2.26c.5,0,.9.4.9.9v23.92c0,.5-.4.9-.9.9h-39.34c-.5,0-.9-.4-.9-.9v-62.49c0-.5-.4-.9-.9-.9-.5.02-.91-.37-.93-.87,0-.28.11-.55.33-.73h0Zm67.46,22.16h-3.33c-.5,0-.9.4-.9.9v41.92c0,.5-.4.9-.9.9h-3.33c-.5,0-.9-.4-.9-.9v-23.91c0-.5-.4-.9-.9-.9h-3.33c-.5,0-.9.4-.9.9v23.91c0,.5-.4.9-.9.9h-3.37c-.5,0-.9-.4-.9-.9v-41.92c0-.5-.4-.9-.9-.9h-3.33c-.5,0-.9.4-.9.9v11.05c0,.5-.4.9-.9.9h-3.33c-.5,0-.9-.4-.9-.9v-21.33c0-.5.4-.9.9-.9h30.47c.05,0,.11,0,.16.01,2.56.36,4.46,2.55,4.47,5.13v17.1c0,.5-.4.9-.9.9h-3.33c-.5,0-.9-.4-.9-.9v-11.05c0-.5-.39-.91-.89-.92-.01,0-.03,0-.04,0h0Zm-19.67-25.72c0-4.26,3.45-7.72,7.72-7.72,4.26,0,7.72,3.45,7.72,7.72,0,4.26-3.45,7.72-7.72,7.72-2.05,0-4.01-.81-5.46-2.26-1.45-1.45-2.26-3.41-2.26-5.46Zm74.59,81.4c0,.5-.4.9-.9.9H59.03c-.5,0-.9-.4-.9-.9v-5.91c0-.5.4-.9.9-.9h131.93c.5,0,.9.4.9.9v5.91Z"/></g></svg>