<svg width="26" height="37" viewBox="0 0 26 37" fill="none" xmlns="http://www.w3.org/2000/svg">
<g clip-path="url(#clip0_1_2)">
<path d="M0 13.8753C0 10.1954 1.36964 6.66611 3.80761 4.06399C6.24558 1.46186 9.55219 0 13 0C16.4478 0 19.7544 1.46186 22.1924 4.06399C24.6304 6.66611 26 10.1954 26 13.8753C26 19.469 24.174 21.0318 14.3363 36.2536C14.1868 36.4839 13.9872 36.6721 13.7546 36.8021C13.522 36.9321 13.2633 37 13.0008 37C12.7382 37 12.4796 36.9321 12.247 36.8021C12.0144 36.6721 11.8148 36.4839 11.6652 36.2536C1.82752 21.0318 0 19.469 0 13.8753Z" fill="#043868"/>
<path d="M19.3012 10.6865C19.3823 10.6582 19.4431 10.6316 19.507 10.6149C19.7953 10.5393 20.0977 10.5508 20.3802 10.6482C20.4283 10.6692 20.4818 10.6715 20.5313 10.6546C20.5807 10.6377 20.6231 10.6028 20.6508 10.5559C20.6785 10.509 20.6899 10.4532 20.6829 10.3982C20.6759 10.3433 20.651 10.2927 20.6126 10.2555C20.128 9.64631 19.4742 9.21782 18.7461 9.03219C18.7196 9.02553 18.693 9.01721 18.6665 9.00889C18.922 8.89534 19.1934 8.82784 19.4696 8.80917C19.5694 8.79918 19.6224 8.75757 19.6317 8.6727C19.6411 8.58782 19.6037 8.53123 19.5101 8.49461C19.1328 8.34532 18.7318 8.27634 18.3297 8.29157C17.8283 8.30253 17.3483 8.51122 16.9825 8.87741C16.424 9.44617 16.047 10.1879 15.905 10.9977C15.8551 11.254 15.8348 11.517 15.8021 11.7816C15.7884 11.7818 15.7748 11.7801 15.7615 11.7766C15.135 11.6201 14.501 11.5001 13.8623 11.4171C13.455 11.36 13.0436 11.3444 12.6335 11.3705C11.9466 11.432 11.2642 11.5421 10.5908 11.7001C10.4661 11.7284 10.3414 11.7583 10.2088 11.7883V11.6535C10.1687 10.7589 9.86351 9.90106 9.33716 9.20361C9.06982 8.82829 8.70236 8.54806 8.28306 8.39975C7.77883 8.24483 7.24302 8.25178 6.74246 8.41972C6.69413 8.42878 6.65078 8.45693 6.62101 8.49856C6.59125 8.54019 6.57727 8.59226 6.58185 8.6444C6.58633 8.69525 6.6079 8.74265 6.64259 8.77783C6.67727 8.81302 6.72272 8.83361 6.77053 8.8358C6.85473 8.85078 6.93893 8.86243 7.02158 8.88406C7.13541 8.91402 7.24924 8.9523 7.36307 8.98725C7.36279 8.99402 7.36175 9.00072 7.35995 9.00722C7.33656 9.01388 7.31317 9.0222 7.28978 9.02886C6.98546 9.10987 6.69165 9.23061 6.415 9.38835C6.02395 9.60779 5.67863 9.90956 5.39989 10.2754C5.37725 10.3003 5.36006 10.3302 5.34954 10.363C5.33903 10.3958 5.33545 10.4307 5.33908 10.4652C5.34284 10.5002 5.35412 10.5338 5.37205 10.5634C5.38998 10.593 5.41406 10.6178 5.44243 10.6358C5.4708 10.6538 5.50268 10.6646 5.5356 10.6674C5.56852 10.6701 5.60159 10.6647 5.63223 10.6516C5.96057 10.5328 6.31658 10.534 6.64422 10.6549C6.66605 10.6632 6.68788 10.6749 6.71595 10.6882C6.59277 10.7448 6.4805 10.793 6.36978 10.8479C5.87612 11.0759 5.44164 11.4282 5.10362 11.8748C4.95259 12.0862 4.82931 12.3185 4.73718 12.5655V12.6687C4.83542 12.8584 4.95549 12.8834 5.10986 12.7469C5.11831 12.7387 5.12715 12.7309 5.13637 12.7236C5.30404 12.5678 5.50064 12.4516 5.71331 12.3824C5.78545 12.367 5.85833 12.3559 5.93162 12.3491C5.93318 12.3575 5.9363 12.3658 5.93785 12.3741C5.88484 12.429 5.83026 12.4806 5.78036 12.5372C5.4365 12.926 5.19497 13.4048 5.08023 13.9252C5.07139 13.9571 5.07048 13.991 5.07759 14.0233C5.0847 14.0557 5.09958 14.0856 5.12077 14.11C5.1392 14.1324 5.1622 14.15 5.18801 14.1614C5.21382 14.1728 5.24174 14.1778 5.26962 14.1758C5.2975 14.1739 5.32459 14.1652 5.3488 14.1503C5.37301 14.1354 5.39369 14.1148 5.40925 14.09C5.64305 13.787 5.92619 13.5316 6.24504 13.3361C6.26843 13.3228 6.29494 13.3128 6.32145 13.2995C6.23712 13.4442 6.16009 13.5937 6.09067 13.7472C6.00802 13.9552 5.94253 14.1699 5.8786 14.3846C5.86939 14.4075 5.86519 14.4324 5.86634 14.4573C5.86749 14.4822 5.87396 14.5064 5.88524 14.5283C5.89651 14.5501 5.91232 14.5689 5.93143 14.5832C5.95055 14.5976 5.97248 14.607 5.99555 14.6109C6.02734 14.6174 6.06022 14.6136 6.08996 14.5999C6.11969 14.5863 6.14492 14.5635 6.1624 14.5344C6.34492 14.2813 6.58704 14.0843 6.86409 13.9635C7.02031 13.895 7.18653 13.8562 7.35527 13.8487C7.2851 14.0234 7.21181 14.1865 7.14944 14.3563C6.87772 15.1293 6.71787 15.9419 6.67541 16.7662C6.63948 17.2302 6.6536 17.697 6.71751 18.1576C6.80547 18.8104 7.02405 19.4353 7.35839 19.99C7.79266 20.6762 8.40269 21.2147 9.11574 21.5411C10.0552 21.9764 11.064 22.2159 12.0878 22.2468C12.4807 22.2684 12.8752 22.2601 13.2697 22.2634C13.8787 22.2715 14.4872 22.222 15.0879 22.1153C15.8024 21.9997 16.4954 21.765 17.1415 21.4196C17.9187 21.0118 18.5456 20.338 18.9223 19.5057C19.223 18.8187 19.3759 18.0687 19.3698 17.3104C19.3698 17.0358 19.3402 16.7612 19.3214 16.4849C19.2729 15.7496 19.1204 15.0263 18.8692 14.3397C18.8084 14.1766 18.7383 14.0168 18.6712 13.852H18.7289C18.752 13.8523 18.775 13.8551 18.7975 13.8603C19.1967 13.924 19.5598 14.1427 19.8173 14.4745C19.8415 14.5143 19.8788 14.5429 19.9219 14.5547C19.9649 14.5664 20.0106 14.5603 20.0496 14.5377C20.0893 14.5156 20.1195 14.4779 20.1337 14.4326C20.1479 14.3873 20.1452 14.3379 20.1261 14.2947C20.0874 14.148 20.04 14.004 19.9842 13.8637C19.9015 13.6723 19.8033 13.4892 19.7066 13.2945C19.7814 13.3411 19.8578 13.381 19.928 13.4293C20.1781 13.6108 20.4046 13.8269 20.6016 14.0717C20.6336 14.1128 20.6757 14.1433 20.7233 14.1599C20.8745 14.2015 20.9806 14.0601 20.9369 13.8836C20.8171 13.3827 20.5812 12.9219 20.2508 12.5439C20.1978 12.484 20.1385 12.4324 20.0808 12.3774C20.0855 12.3675 20.0917 12.3575 20.0964 12.3491C20.1688 12.3552 20.2406 12.3663 20.3116 12.3824C20.5203 12.4485 20.7133 12.5614 20.8776 12.7136C20.9026 12.7376 20.9321 12.7556 20.9641 12.7665C20.9961 12.7774 21.0298 12.7809 21.0632 12.7769C21.1089 12.7695 21.1517 12.7484 21.1865 12.716C21.2213 12.6835 21.2467 12.6411 21.2597 12.5938V12.4906C20.8823 11.5603 20.165 11.0477 19.2996 10.6865H19.3012Z" fill="white"/>
</g>
<defs>
<clipPath id="clip0_1_2">
<rect width="26" height="37" fill="white"/>
</clipPath>
</defs>
</svg>
