<svg xmlns="http://www.w3.org/2000/svg" width="80.511" height="96.249" viewBox="0 0 80.511 96.249">
  <g id="Group_210" data-name="Group 210" transform="translate(-922.677 61.74)">
    <path id="Path_77" data-name="Path 77" d="M1043.912,121.5a26.34,26.34,0,0,1,11.727-8.868,7.707,7.707,0,0,0-5.406-2.124,8.737,8.737,0,0,0-5.773,3.2,8.9,8.9,0,0,0-1.577,4.882h0a15,15,0,0,0,.356,3.838C1043.461,122.122,1043.672,121.809,1043.912,121.5Z" transform="translate(-96.157 -137.799)" fill="#fff"/>
    <path id="Path_82" data-name="Path 82" d="M1090.817,147.681c-7.05.627-11.421-3.932-15.278-7.955a32.492,32.492,0,0,0-6.017-5.356c-3.689-2.275-7.715-2.315-11.8-1.187-5,1.378-8.741,5-11.12,8.038a17.238,17.238,0,0,0-3.792,11.623c.2,8.513,5.655,14.539,9.248,17.6a14.234,14.234,0,0,0,6.665,3.436,11.742,11.742,0,0,0,7.644-.971,27.457,27.457,0,0,1-12.48-15.7,1.75,1.75,0,0,1,3.358-.989h0c2.884,9.789,11.335,14.018,12.9,14.727,8.588.337,15.113-1.9,19.438-6.61.042-.044.077-.093.117-.137q-.558.04-1.1.04c-8.071,0-13.449-6.3-13.714-6.62a1.75,1.75,0,0,1,2.683-2.247c.265.313,6.307,7.434,14.7,4.861.066-.02.123-.055.246-.106a32.1,32.1,0,0,0,3.245-14.369A9.968,9.968,0,0,1,1090.817,147.681Z" transform="translate(-96.087 -155.358)" fill="#94c83f"/>
    <path id="Path_86" data-name="Path 86" d="M1176.7,99.115a6.993,6.993,0,0,1,5.569,12.063,17.709,17.709,0,0,0,2.839,2.111,10.489,10.489,0,1,0-16.326-13.049,15.331,15.331,0,0,1,3.194,1.534A6.992,6.992,0,0,1,1176.7,99.115Z" transform="translate(-196.883 -125.852)" fill="#76adc7"/>
    <path id="Path_87" data-name="Path 87" d="M1002.968-13.822a1.752,1.752,0,0,0-1.287-1.461v0a1.752,1.752,0,0,0-1.841.632c-.915,1.2-2.837,3.259-5.422,3.489a10.066,10.066,0,0,1-6.193-1.4c-.058.061-.114.124-.174.184a10.012,10.012,0,0,1-3.139-1.888c.165-.129.322-.266.474-.407-1.138-1.013-2.249-2.171-3.408-3.38a35.49,35.49,0,0,0-6.706-5.913c-.059-.038-.119-.073-.179-.11-.1.127-.194.256-.284.39h0c-.331-.23-.669-.454-1.017-.669a21.411,21.411,0,0,0-2-1.091c.036-.056.075-.109.111-.164a15.341,15.341,0,0,0-7.995-.538c-.127.012-.249.037-.375.051-2.277-2.541-5.43-4.585-8.755-4.7l-15.88-27.732a1.75,1.75,0,0,0-2.385-.644,1.75,1.75,0,0,0-.652,2.383L951.1-30.163a12.369,12.369,0,0,0-5.421,3.769L925.946-60.858a1.75,1.75,0,0,0-2.388-.649,1.75,1.75,0,0,0-.649,2.388l20.872,36.45a14.108,14.108,0,0,0-.55,3.3,19.109,19.109,0,0,0,1.513,8.2,21.275,21.275,0,0,0-1.525,8.742c.235,10.171,6.662,17.07,10.757,20.446a17.548,17.548,0,0,0,8.361,4.019,16.193,16.193,0,0,0,2.781.245,14.611,14.611,0,0,0,9.173-3.183c9.473.293,16.808-2.327,21.794-7.77,8.83-9.64,6.966-24.518,6.883-25.146ZM946.727-19.2h0a8.9,8.9,0,0,1,1.577-4.882,8.737,8.737,0,0,1,5.773-3.2,7.708,7.708,0,0,1,5.406,2.124A26.34,26.34,0,0,0,947.755-16.3c-.241.307-.452.62-.673.931A14.991,14.991,0,0,1,946.727-19.2Zm49.7,23.968h0c-.123.051-.18.085-.246.106-8.392,2.573-14.434-4.548-14.7-4.861A1.75,1.75,0,0,0,978.8,2.255c.265.317,5.643,6.62,13.714,6.62q.542,0,1.1-.04c-.041.044-.076.093-.117.137-4.324,4.712-10.85,6.948-19.438,6.61-1.567-.709-10.019-4.938-12.9-14.727h0a1.75,1.75,0,1,0-3.358.989,27.457,27.457,0,0,0,12.48,15.7,11.742,11.742,0,0,1-7.644.971,14.234,14.234,0,0,1-6.665-3.436c-3.594-3.059-9.052-9.084-9.248-17.6a17.238,17.238,0,0,1,3.792-11.623c2.38-3.036,6.119-6.66,11.12-8.038,4.088-1.127,8.114-1.088,11.8,1.187a32.489,32.489,0,0,1,6.017,5.356c3.857,4.023,8.228,8.582,15.278,7.955a9.968,9.968,0,0,0,4.94-1.929,32.1,32.1,0,0,1-3.245,14.369Z" transform="translate(0)" fill="#76adc7"/>
    <path id="Path_88" data-name="Path 88" d="M1291.414,270.774Z" transform="translate(-294.989 -266.011)"/>
    <path id="Path_89" data-name="Path 89" d="M1233.846,174a10.01,10.01,0,0,0,3.139,1.888c.06-.06.116-.123.174-.184a17.709,17.709,0,0,1-2.839-2.111C1234.168,173.732,1234.011,173.869,1233.846,174Z" transform="translate(-248.935 -188.264)" fill="#76adc7"/>
    <path id="Path_90" data-name="Path 90" d="M1183.33,128.52h0Z" transform="translate(-208.522 -152.208)"/>
    <path id="Path_91" data-name="Path 91" d="M1170.229,120.155c.348.216.687.44,1.017.669.09-.134.186-.263.284-.39a15.334,15.334,0,0,0-3.194-1.534c-.036.055-.075.108-.111.164A21.413,21.413,0,0,1,1170.229,120.155Z" transform="translate(-196.438 -144.512)" fill="#76adc7"/>
    <path id="Path_92" data-name="Path 92" d="M1333.956,97.841h0a1.75,1.75,0,0,0,3.431,0c1.15-5.745,1.632-6.227,7.378-7.377h0a1.75,1.75,0,0,0,0-3.431c-5.745-1.149-6.228-1.632-7.378-7.379a1.75,1.75,0,0,0-3.431,0c-1.15,5.746-1.633,6.23-7.378,7.379a1.75,1.75,0,0,0,0,3.431C1332.324,91.613,1332.806,92.1,1333.956,97.841Zm1.716-11.968a6.786,6.786,0,0,0,2.874,2.875,2.875,2.875,0,0,1-5.749,0A6.786,6.786,0,0,0,1335.672,85.873Z" transform="translate(-374.273 -137.466)" fill="#76adc7"/>
    <path id="Path_93" data-name="Path 93" d="M968.519,305.788h0c-5.745-1.149-6.228-1.632-7.378-7.378a1.75,1.75,0,0,0-3.431,0c-1.15,5.745-1.632,6.228-7.377,7.378h0a1.75,1.75,0,0,0,0,3.431c5.745,1.148,6.228,1.63,7.377,7.378a1.75,1.75,0,0,0,3.431,0c1.149-5.748,1.632-6.23,7.377-7.378a1.75,1.75,0,0,0,0-3.431Zm-9.094,4.588a6.787,6.787,0,0,0-2.873-2.873,6.789,6.789,0,0,0,2.873-2.873A6.789,6.789,0,0,0,962.3,307.5,6.786,6.786,0,0,0,959.425,310.377Z" transform="translate(-20.998 -286.995)" fill="#76adc7"/>
    <path id="Path_94" data-name="Path 94" d="M952.419,220a6.122,6.122,0,1,0-6.125,6.125h0A6.124,6.124,0,0,0,952.419,220Zm-4.269,1.856a2.625,2.625,0,1,1-1.856-4.481h0a2.625,2.625,0,0,1,1.856,4.481Z" transform="translate(-13.993 -220.493)" fill="#76adc7"/>
    <path id="Path_95" data-name="Path 95" d="M1254.684,50.616h0a6.132,6.132,0,1,0-4.329-1.8A6.127,6.127,0,0,0,1254.684,50.616Zm0-8.75h0a2.625,2.625,0,1,1-2.625,2.625A2.625,2.625,0,0,1,1254.684,41.866Z" transform="translate(-260.705 -80.084)" fill="#76adc7"/>
    <path id="Path_97" data-name="Path 97" d="M1186.924,358.256h0a6.132,6.132,0,1,0,4.329,1.8A6.128,6.128,0,0,0,1186.924,358.256Zm0,8.75h0a2.625,2.625,0,1,1,2.625-2.625A2.625,2.625,0,0,1,1186.924,367.006Z" transform="translate(-206.497 -335.996)" fill="#76adc7"/>
  </g>
</svg>
