<svg xmlns="http://www.w3.org/2000/svg" width="109" height="94.5" viewBox="0 0 109 94.5">
  <g id="Group_1467" data-name="Group 1467" transform="translate(-1400 -1365.5)">
    <g id="Group_326" data-name="Group 326" transform="translate(6 62)">
      <g id="Group_310" data-name="Group 310" transform="translate(1407 1302)">
        <path id="Path_217" data-name="Path 217" d="M44.75,29.332H29.926l8,8.844Z" transform="translate(0 1)" fill="#94c83f"/>
        <path id="Path_214" data-name="Path 214" d="M57.24,47.6V35.181A11.2,11.2,0,0,0,46.059,24H26.181A11.2,11.2,0,0,0,15,35.181V51.332h2.485V35.181a8.706,8.706,0,0,1,8.7-8.7h1.97l7.09,7.09a1.243,1.243,0,0,0,1.757,0l7.09-7.09h1.97a8.706,8.706,0,0,1,8.7,8.7V47.6ZM36.12,30.94l-4.455-4.455h8.91Z" transform="translate(1.939 5.332)" fill="#76adc7" stroke="#76adc7" stroke-width="1"/>
        <rect id="Rectangle_199" data-name="Rectangle 199" width="2" height="11" transform="translate(26 43)" fill="#76adc7" stroke="#76adc7" stroke-width="1"/>
        <rect id="Rectangle_200" data-name="Rectangle 200" width="2" height="9" transform="translate(48 43)" fill="#76adc7" stroke="#76adc7" stroke-width="1"/>
        <path id="Path_215" data-name="Path 215" d="M74.087,46.46H58.243a19.115,19.115,0,0,0-8.923-2.348c-.094-.009-.193-.012-.28-.012a19.23,19.23,0,0,0-9.2,2.346L30.6,46.46a4.97,4.97,0,0,0-4.969,4.969,2.128,2.128,0,0,0,.017.294,4.855,4.855,0,0,0,.162,1.008l-7-3.209-.113-.056-4.183-1.911A5.3,5.3,0,0,0,7,52.374v.273a5.256,5.256,0,0,0,2.934,4.738L26,65.43a8.8,8.8,0,0,0,3.886.908h44.2A1.243,1.243,0,0,0,75.329,65.1V47.7A1.243,1.243,0,0,0,74.087,46.46ZM56.694,63.853H29.884A6.315,6.315,0,0,1,27.1,63.2L11.043,55.157a2.785,2.785,0,0,1-1.558-2.51v-.273a2.817,2.817,0,0,1,3.993-2.559l4.148,1.895.112.055L27.6,56.286a1.249,1.249,0,0,0,.519.113H41.786V53.915H30.6a2.472,2.472,0,0,1-2.474-2.372,1.05,1.05,0,0,0-.011-.124A2.485,2.485,0,0,1,30.6,48.945h9.529a1.239,1.239,0,0,0,.608-.159l.3-.168A16.856,16.856,0,0,1,49,46.574a1.285,1.285,0,0,0,.229.024,16.61,16.61,0,0,1,7.464,1.851Zm16.151,0H59.179V48.945H72.844Z" transform="translate(0 10.203)" fill="#76adc7" stroke="#76adc7" stroke-width="1"/>
        <path id="Path_216" data-name="Path 216" d="M33.939,26.847a9.95,9.95,0,0,0,9.939-9.939V11.939a9.939,9.939,0,1,0-19.878,0v4.969A9.95,9.95,0,0,0,33.939,26.847ZM26.485,11.939a7.454,7.454,0,0,1,14.908,0v4.969a7.454,7.454,0,0,1-14.908,0Z" transform="translate(4.12)" fill="#76adc7" stroke="#76adc7" stroke-width="1"/>
      </g>
    </g>
    <ellipse id="Ellipse_70" data-name="Ellipse 70" cx="54.5" cy="2.5" rx="54.5" ry="2.5" transform="translate(1400 1455)" fill="#7eb4a3" opacity="0.32"/>
  </g>
</svg>
