<svg xmlns="http://www.w3.org/2000/svg" xmlns:xlink="http://www.w3.org/1999/xlink" width="74.618" height="70.917" viewBox="0 0 74.618 70.917">
  <defs>
    <clipPath id="clip-path">
      <rect id="Rectangle_392" data-name="Rectangle 392" width="72.618" height="60.868" fill="#94c83f"/>
    </clipPath>
  </defs>
  <g id="Group_1520" data-name="Group 1520" transform="translate(-1691 -3349.484)">
    <ellipse id="Ellipse_86" data-name="Ellipse 86" cx="34" cy="2.5" rx="34" ry="2.5" transform="translate(1691 3415.4)" fill="#7eb4a3" opacity="0.32"/>
    <g id="Group_1162" data-name="Group 1162" transform="translate(1693 3349.484)">
      <g id="Group_1161" data-name="Group 1161" clip-path="url(#clip-path)">
        <rect id="Rectangle_393" data-name="Rectangle 393" width="17" height="14" transform="translate(6 45.516)" fill="#94c83f"/>
        <path id="Path_3011" data-name="Path 3011" d="M336.942,400.288h31.047a.944.944,0,0,0,0-1.887H336.942a.946.946,0,0,0-.944.944A1.015,1.015,0,0,0,336.942,400.288Z" transform="translate(-309.575 -367.071)" fill="#76adc7"/>
        <path id="Path_3012" data-name="Path 3012" d="M71.814,26.612H62.66V20.478a.946.946,0,0,0-.944-.944H30.292a.946.946,0,0,0-.944.944v6.134h-3.02L25.2.849A.931.931,0,0,0,24.253,0H17.93a.931.931,0,0,0-.944.849L15.948,23.215,14.91.849A.931.931,0,0,0,13.967,0H7.644A.931.931,0,0,0,6.7.849L5.474,26.612H.944A.946.946,0,0,0,0,27.556V59.924a.946.946,0,0,0,.944.944H71.626a.946.946,0,0,0,.944-.944V27.556A.715.715,0,0,0,71.814,26.612ZM67.756,58.98H66.341V28.5h1.416ZM54.073,21.422h6.794v5.19H54.073Zm-8.682,0h6.794v5.19H45.391Zm-8.682,0H43.5v5.19H36.709Zm-5.473,0h3.586v5.19H31.236ZM18.874,1.793H23.4l1.132,24.819H17.647Zm-10.192,0h4.53l1.132,24.819H7.455Zm5.1,57.187h-6.7V46.429h6.7Zm8.493,0h-6.7V46.429h6.7Zm.944-14.344H6.134a.946.946,0,0,0-.944.944v13.4H2.076V28.5H64.453V58.98h-40.3V45.58a.891.891,0,0,0-.944-.944ZM70.965,58.98H69.644V28.5h1.321Z" fill="#76adc7"/>
        <path id="Path_3013" data-name="Path 3013" d="M392.354,457.2H365.742a.946.946,0,0,0-.944.944v17.647a.946.946,0,0,0,.944.944h26.518a.946.946,0,0,0,.944-.944V458.145a.868.868,0,0,0-.849-.944Zm-18.685,17.741h-6.983v-6.983h6.983Zm0-8.871h-6.983v-6.983h6.983Zm8.871,8.871h-6.983v-6.983h6.983Zm0-8.871h-6.983v-6.983h6.983Zm8.871,8.871h-6.983v-6.983h6.983Zm0-8.871h-6.983v-6.983h6.983Z" transform="translate(-336.11 -421.247)" fill="#76adc7"/>
      </g>
    </g>
  </g>
</svg>
