<svg xmlns="http://www.w3.org/2000/svg" xmlns:xlink="http://www.w3.org/1999/xlink" width="72.984" height="81.484" viewBox="0 0 72.984 81.484">
  <defs>
    <clipPath id="clip-path">
      <rect id="Rectangle_312" data-name="Rectangle 312" width="72.984" height="72.984" transform="translate(-3 -3)" fill="#75adc7" stroke="#75adc7" stroke-width="1"/>
    </clipPath>
  </defs>
  <g id="Group_1494" data-name="Group 1494" transform="translate(-678.02 -3547.516)">
    <ellipse id="Ellipse_78" data-name="Ellipse 78" cx="34" cy="2.5" rx="34" ry="2.5" transform="translate(679 3624)" fill="#7eb4a3" opacity="0.32"/>
    <g id="Group_532" data-name="Group 532" transform="translate(681.02 3550.516)" clip-path="url(#clip-path)">
      <path id="Path_2840" data-name="Path 2840" d="M8.123,64.963H58.869V50.754a1.015,1.015,0,1,1,2.03,0V64.963h5.075a1.015,1.015,0,0,1,0,2.03H1.018a1.015,1.015,0,0,1,0-2.03H6.093V50.754a1.015,1.015,0,1,1,2.03,0Zm14.8-24.358-5.372-5.372A1.015,1.015,0,1,1,18.989,33.8l7.1,7.1a1.014,1.014,0,0,1,0,1.435l-7.1,7.1a1.015,1.015,0,0,1-1.435-1.435l5.372-5.372H1.019a1.015,1.015,0,0,1,0-2.03Zm43.047,0a1.015,1.015,0,0,1,0,2.03H44.065l5.372,5.372A1.015,1.015,0,0,1,48,49.442l-7.1-7.1a1.014,1.014,0,0,1,0-1.435L48,33.8a1.015,1.015,0,0,1,1.435,1.435l-5.372,5.372Zm-7.1-24.145L33.5,2.188,8.123,16.46V32.486a1.015,1.015,0,0,1-2.03,0V17.6L1.516,20.177a1.015,1.015,0,1,1-1-1.769L33,.138a1.017,1.017,0,0,1,1,0L66.471,18.407a1.015,1.015,0,0,1-1,1.769L60.9,17.6V32.486a1.015,1.015,0,0,1-2.03,0Z" transform="translate(-0.003 -0.008)" fill="#75adc7" stroke="#75adc7" stroke-width="1"/>
    </g>
  </g>
</svg>
