<svg xmlns="http://www.w3.org/2000/svg" xmlns:xlink="http://www.w3.org/1999/xlink" width="74.65" height="73.612" viewBox="0 0 74.65 73.612">
  <defs>
    <clipPath id="clip-path">
      <rect id="Rectangle_392" data-name="Rectangle 392" width="67.85" height="46.364" fill="#76adc7"/>
    </clipPath>
  </defs>
  <g id="Group_1497" data-name="Group 1497" transform="translate(-308.35 -5618.79)">
    <ellipse id="Ellipse_78" data-name="Ellipse 78" cx="34" cy="2.5" rx="34" ry="2.5" transform="translate(315 5687.402)" fill="#7eb4a3" opacity="0.32"/>
    <g id="Group_1469" data-name="Group 1469">
      <path id="Path_3193" data-name="Path 3193" d="M2348.45,5632.617l17,2.667-1.45,6.767h-2.333l-2.217,1.45-1.233,7.117-5.217-1-2-5-5.667-1.117Z" transform="translate(-1990)" fill="#94c83f"/>
      <g id="Group_1454" data-name="Group 1454" transform="translate(314.803 5618.79) rotate(8)">
        <g id="Group_1453" data-name="Group 1453" clip-path="url(#clip-path)">
          <path id="Path_3136" data-name="Path 3136" d="M62.2,0H55.411a1.131,1.131,0,1,0,0,2.262H62.2a3.4,3.4,0,0,1,3.392,3.392V6.785a3.4,3.4,0,0,1-2.262,3.2V7.916A1.131,1.131,0,0,0,62.2,6.785H45.233V4.523A1.131,1.131,0,0,0,44.1,3.393H5.654A1.131,1.131,0,0,0,4.523,4.523v3.64L.857,9.08A1.131,1.131,0,0,0,0,10.178v2.262a1.131,1.131,0,0,0,.857,1.1l3.667.917v3.64a1.131,1.131,0,0,0,1.131,1.131H9.047a1.131,1.131,0,0,0,.8-.331l1.93-1.93h26.2l1.93,1.93a1.131,1.131,0,0,0,.8.331h2.262a1.129,1.129,0,0,0,.521.952l-2.508,5.016a24.155,24.155,0,0,0-2.537,10.747v9.3a1.131,1.131,0,0,0,1.131,1.131,5.66,5.66,0,0,0,5.654-5.654V38.332a21.733,21.733,0,0,1,3.4-11.687l2-3.137.254.508v6.992a12.126,12.126,0,0,0,.623,3.842,9.865,9.865,0,0,1,.507,3.126V40.71a5.66,5.66,0,0,0,5.654,5.654A1.131,1.131,0,0,0,58.8,45.233V17.528a1.7,1.7,0,0,1,1.7-1.7h1.7A1.131,1.131,0,0,0,63.327,14.7V12.326A5.664,5.664,0,0,0,67.85,6.785V5.654A5.66,5.66,0,0,0,62.2,0ZM42.971,6.785H40.71V5.654h2.262ZM38.448,9.27l-.605.908H11.309V5.654h27.14ZM6.785,5.654H9.047v4.523H6.785Zm-4.523,5.9v-.5l2.262-.565v1.627Zm38.917,5.406-1.93-1.93a1.131,1.131,0,0,0-.8-.331H11.309a1.131,1.131,0,0,0-.8.331l-1.93,1.93H6.785V12.439H38.448a1.131,1.131,0,0,0,.941-.5l1.926-2.889h1.656v7.916Zm5.55,8.467a23.991,23.991,0,0,0-3.757,12.9V40.71a3.4,3.4,0,0,1-2.262,3.2v-7.97a21.879,21.879,0,0,1,2.3-9.735l2.924-5.848h3.126l.4.793Zm9.813,18.479a3.4,3.4,0,0,1-2.262-3.2V37.974a12.126,12.126,0,0,0-.623-3.842,9.869,9.869,0,0,1-.507-3.127V24.878h3.392Zm4.523-30.339H60.5a3.962,3.962,0,0,0-3.958,3.958v5.089H52.717l-1.949-3.9a1.131,1.131,0,0,0-1.011-.625H45.234V9.046H61.065Z" fill="#76adc7"/>
          <path id="Path_3137" data-name="Path 3137" d="M864.712,226.133A1.131,1.131,0,1,1,863.581,225a1.131,1.131,0,0,1,1.131,1.131" transform="translate(-810.435 -211.432)" fill="#76adc7"/>
        </g>
      </g>
    </g>
  </g>
</svg>
