<svg xmlns="http://www.w3.org/2000/svg" xmlns:xlink="http://www.w3.org/1999/xlink" width="68" height="62.755" viewBox="0 0 68 62.755">
  <defs>
    <clipPath id="clip-path">
      <rect id="Rectangle_397" data-name="Rectangle 397" width="64" height="49.117" fill="#76adc7" stroke="#76adc7" stroke-width="1"/>
    </clipPath>
  </defs>
  <g id="Group_1498" data-name="Group 1498" transform="translate(-635 -5629.647)">
    <ellipse id="Ellipse_78" data-name="Ellipse 78" cx="34" cy="2.5" rx="34" ry="2.5" transform="translate(635 5687.402)" fill="#7eb4a3" opacity="0.32"/>
    <g id="Group_1468" data-name="Group 1468">
      <path id="Path_3192" data-name="Path 3192" d="M2643.6,5646.06l12.8,7.88,35.06-12.4-14.92-4.54Z" transform="translate(-1990)" fill="#94c83f"/>
      <g id="Group_1464" data-name="Group 1464" transform="translate(638 5629.647)">
        <g id="Group_1463" data-name="Group 1463" clip-path="url(#clip-path)">
          <path id="Path_3187" data-name="Path 3187" d="M26.89,24.065,15.653,17.312c-.872-.524-.713-.577-.713.455v2.141c0,.69-.064.855.606,1.292,3.949,2.572,7.911,5.131,11.851,7.717.476.312.506.221.506-.172v-4.12a10.015,10.015,0,0,1-1.014-.56Zm25.155-10.55a.342.342,0,0,1,.217.648l-2.036.683a.342.342,0,0,1-.217-.648Zm-3.971,1.331a.342.342,0,0,1,.217.648l-7.726,2.59a.342.342,0,0,1-.217-.648ZM3.481,9.528,6.75,11.4c.856.489.856.494.852,1.639L7.569,26.809c0,1.094-.352,1.805-1.485,1.015L2.913,25.612c-.8-.557-.8-.875-.8-1.8l.005-13.468c0-.923.528-1.286,1.36-.811ZM6.413,11.99,3.144,10.122c-.28-.178-.354-.072-.34.217L2.8,23.807c0,.694-.075.841.5,1.245l3.172,2.213c.289.239.413.25.411-.456l.033-13.775c0-.751,0-.754-.507-1.045ZM8.727,30.706l.057-18.553c0-1.191,0-1.4-1.143-2.063L1.618,6.623c-.79-.455-.7-.59-.7.289v18.1c0,1.159-.007,1.226.938,1.908L7.8,31.215c.755.582.888.421.924-.508Zm.876.634,6.161-1.805-.427-.315c-.893-.6-.893-.934-.891-1.57,0-1.327,0-2.656,0-3.983-.053-.456.345-.63.709-.753l.893-.3-.995-.648c-1.051-.684-1.024-.914-1.024-2.059V16.077a.457.457,0,0,1,.391-.452L45.408,8.17l.057-3.118c.025-.585-.016-.51-.459-.423l-34.869,6.3c-.4.086-.453.081-.444.7,0,.157,0,.329,0,.519L9.637,30.706a5.426,5.426,0,0,1-.034.634Zm7.083-1.127L8.925,32.488c-.4.148-.929-.012-1.653-.534L1.32,27.663A2.425,2.425,0,0,1,0,25.017V6.193c.007-.939.572-.951,1.11-1.032L34.683.129a3.91,3.91,0,0,1,2.594.191L44.6,2.942c1.281.458,1.8.481,1.774,1.959l-.055,3.049,1.544-.371a2.722,2.722,0,0,1,2.071.009L63,11.541c.559.169,1,.239,1,.963V16.29c0,1.2-.411,1.435-1.437,1.806v3.081a1.487,1.487,0,0,1-.838,1.557l0,2.318a1.987,1.987,0,0,1-.889,1.967L36.5,48.066c-2.021,1.747-2.572,1.071-4.564-.251L16.7,37.7c-1.2-.8-1.139-1.054-1.152-2.426l-.029-2.989c-.028-.524.43-.767.825-.98l1.045-.567-.708-.521ZM9.971,10.035,44.352,3.822,37.011,1.2a3.152,3.152,0,0,0-2.179-.165L2.218,5.919,8.094,9.3a7.65,7.65,0,0,1,.891.576c.406.319.436.257.986.158Zm6.45,6.683,10.923,6.564c1.13.679,1.1.633,2.266.234L62.341,12.3,49.673,8.462a1.926,1.926,0,0,0-1.6,0L16.633,16.031c-1.084.261-1.169.112-.212.687ZM34.043,48.032V44.749c0-.355-.007-.408-.469-.656-.184-.1-.361-.214-.533-.324l-16.6-10.584.02,2.053c.009.982-.09,1.145.736,1.694L32.441,47.055a9.491,9.491,0,0,0,1.6.978Zm.913-3.235v3.237a3.868,3.868,0,0,0,1.025-.722L60.236,26.339c.545-.471.585-.522.584-1.286l0-1.815L58.9,24.3,35.761,43.685c-.121.1-.251.2-.375.3a.842.842,0,0,0-.431.815ZM16.919,32.409,33.5,42.98c.861.565.954.605,1.715-.026L54.722,26.61,31.669,39.363c-1.347.745-1.7.634-2.887-.24L18.206,31.334,16.983,32c-.389.162-.34.234-.064.412Zm13.726,1.583v4.315c0,.74-.035.6.644.223L61.414,21.866c.243-.134.237-.431.237-.671V18.429l-1.672.608-28.8,14.692c-.176.09-.353.191-.536.264ZM29.731,38.2V34.037a3.351,3.351,0,0,1-.83-.434L16.011,25.022c-.767-.511-.653-.6-.653.317q0,1.156,0,2.312c0,.556.23.621.612.9L29.311,38.38c.381.281.42.158.42-.176ZM17.018,23.245l-.692.235c-.812.275-.748.159-.025.641L29.333,32.8c.731.486.691.5,1.461.1L52.979,21.582,29.6,30.086c-1.34.487-1.254.538-2.472-.255L17.018,23.245Zm45.435-6.077c.567-.206.635-.235.635-.878V13L29.908,24.379a10.812,10.812,0,0,1-1.09.358V28.9c0,.466-.014.512.474.334L62.452,17.167Z" transform="translate(0 0)" fill="#76adc7" stroke="#76adc7" stroke-width="1"/>
        </g>
      </g>
    </g>
  </g>
</svg>
