<svg xmlns="http://www.w3.org/2000/svg" xmlns:xlink="http://www.w3.org/1999/xlink" width="68" height="68.402" viewBox="0 0 68 68.402">
  <defs>
    <clipPath id="clip-path">
      <rect id="Rectangle_394" data-name="Rectangle 394" width="56" height="55" transform="translate(-4 -3)" fill="#76adc7" stroke="#76adc7" stroke-width="1"/>
    </clipPath>
  </defs>
  <g id="Group_1494" data-name="Group 1494" transform="translate(-955 -5279)">
    <ellipse id="Ellipse_78" data-name="Ellipse 78" cx="34" cy="2.5" rx="34" ry="2.5" transform="translate(955 5342.402)" fill="#7eb4a3" opacity="0.32"/>
    <g id="Group_1458" data-name="Group 1458" transform="translate(959.697 5281.265)">
      <g id="Group_1457" data-name="Group 1457" transform="translate(0.303 0.735)" clip-path="url(#clip-path)">
        <path id="Path_3195" data-name="Path 3195" d="M8.843,37.089,43.03,25.31l3.978-3.978,2.342-7.381L48.024,7.918,44.931,2.769,38.743-.17,7.672,7.918,3.384,11.763.158,20.293l1.326,7.668,3.381,6.475Z" fill="#94c83f"/>
        <path id="Path_3179" data-name="Path 3179" d="M107.225,330.274c0-6.394-3.519-8.674-6.79-8.674s-6.84,2.28-6.84,8.674c0,5.8,3.073,10.458,6.79,10.458s6.84-4.709,6.84-10.458m-12.391,0c0-4.609,2.131-7.435,5.6-7.435s5.6,2.875,5.6,7.435c0,5.105-2.528,9.268-5.6,9.268s-5.6-4.163-5.6-9.268" transform="translate(-89.799 -308.881)" fill="#76adc7" stroke="#76adc7" stroke-width="1"/>
        <path id="Path_3180" data-name="Path 3180" d="M175.43,435.409c0-3.42-1.983-4.609-3.717-4.609s-3.717,1.19-3.717,4.609c0,3.123,1.636,5.551,3.717,5.551s3.717-2.428,3.717-5.551m-6.2,0c0-2.131.942-3.42,2.478-3.42s2.478,1.289,2.478,3.42c0,2.329-1.14,4.312-2.478,4.312s-2.478-1.982-2.478-4.312" transform="translate(-161.126 -413.571)" fill="#76adc7" stroke="#76adc7" stroke-width="1"/>
        <path id="Path_3181" data-name="Path 3181" d="M42.872,25.923c4.114-2.032,6.691-5.254,6.691-11.8a18.623,18.623,0,0,0-1.338-7.088.629.629,0,0,0-.05-.3.494.494,0,0,0-.2-.248C46.193,2.479,42.872,0,38.907,0h-.2L9.318,8.08C3.866,8.873,0,14.523,0,22.156,0,29.838,3.866,36.281,8.872,37.52a.7.7,0,0,0,.1.3l7.633,11.5a.61.61,0,0,0,.5.248.3.3,0,0,0,.2-.05l31.82-12.391a.566.566,0,0,0,.347-.4.587.587,0,0,0-.05-.5Zm3.866-19.28-5.6,2.082a.625.625,0,0,0-.347.793.58.58,0,0,0,.545.4.3.3,0,0,0,.2-.05l5.65-2.131a17.7,17.7,0,0,1,1.041,4.51l-6,2.28a.625.625,0,0,0-.347.793.58.58,0,0,0,.545.4.3.3,0,0,0,.2-.05l5.65-2.131v.595a14.228,14.228,0,0,1-1.14,6.1L41.088,22.5a.625.625,0,0,0-.347.793.58.58,0,0,0,.545.4.3.3,0,0,0,.2-.05l4.609-1.735c-1.685,2.181-4.213,3.42-7.484,4.362l-21.164,7.98a15.2,15.2,0,0,0,2.627-4.659l6.146-2.329a.612.612,0,1,0-.446-1.14L20.519,28.1a22.46,22.46,0,0,0,.743-4.56l6.1-2.28a.625.625,0,0,0,.347-.793.586.586,0,0,0-.793-.347l-5.65,2.131v-.05a19.571,19.571,0,0,0-.942-6.047l5.749-2.181a.612.612,0,0,0-.446-1.14l-5.749,2.181A13.018,13.018,0,0,0,17.694,11.4l5.948-2.23a.625.625,0,0,0,.347-.793.586.586,0,0,0-.793-.347L16.9,10.41c-.05,0-.1.05-.149.1a8.789,8.789,0,0,0-3.866-2.131L38.956,1.19a7.755,7.755,0,0,1,4.857,1.735L38.262,5.007a.625.625,0,0,0-.347.793.58.58,0,0,0,.545.4.3.3,0,0,0,.2-.05L44.8,3.817a10.552,10.552,0,0,1,1.933,2.825ZM1.189,22.156c0-6.443,2.924-11.35,7.187-12.639h.2l1.041-.3a7.319,7.319,0,0,1,1.041-.05c5.5,0,9.467,5.452,9.467,12.986,0,7.93-4.262,14.373-9.467,14.373S1.189,30.086,1.189,22.156Zm16.158,26.07L10.408,37.719h.3a7.841,7.841,0,0,0,4.362-1.388.3.3,0,0,0,.2-.05l23.84-8.971c.942-.3,1.834-.595,2.676-.942l6.295,9.863Z" transform="translate(-0.07 -0.565)" fill="#76adc7" stroke="#76adc7" stroke-width="1"/>
      </g>
    </g>
  </g>
</svg>
