<svg xmlns="http://www.w3.org/2000/svg" xmlns:xlink="http://www.w3.org/1999/xlink" width="73" height="67.327" viewBox="0 0 73 67.327">
  <defs>
    <clipPath id="clip-path">
      <rect id="Rectangle_399" data-name="Rectangle 399" width="71.4" height="46.459" fill="#75adc7"/>
    </clipPath>
  </defs>
  <g id="Group_1493" data-name="Group 1493" transform="translate(-630 -5280.075)">
    <ellipse id="Ellipse_78" data-name="Ellipse 78" cx="34" cy="2.5" rx="34" ry="2.5" transform="translate(635 5342.402)" fill="#7eb4a3" opacity="0.32"/>
    <g id="Group_1472" data-name="Group 1472" transform="translate(568 -117.741)">
      <circle id="Ellipse_86" data-name="Ellipse 86" cx="4" cy="4" r="4" transform="translate(121 5405)" fill="#94c83f"/>
      <circle id="Ellipse_87" data-name="Ellipse 87" cx="4" cy="4" r="4" transform="translate(124 5408)" fill="#94c83f"/>
      <circle id="Ellipse_88" data-name="Ellipse 88" cx="4" cy="4" r="4" transform="translate(119 5410)" fill="#94c83f"/>
      <circle id="Ellipse_89" data-name="Ellipse 89" cx="2.5" cy="2.5" r="2.5" transform="translate(119 5437)" fill="#94c83f"/>
      <circle id="Ellipse_90" data-name="Ellipse 90" cx="2.5" cy="2.5" r="2.5" transform="translate(63 5415)" fill="#94c83f"/>
      <g id="Group_1471" data-name="Group 1471" transform="translate(62 5397.816)">
        <g id="Group_1470" data-name="Group 1470" clip-path="url(#clip-path)">
          <path id="Path_3198" data-name="Path 3198" d="M82.49,106.011a10,10,0,0,0,14.736,8.827,10,10,0,0,0,13.507-.385,10.008,10.008,0,0,0,17.292-9.8,10.009,10.009,0,0,0-6.736-17.42,10.015,10.015,0,0,0-19.615-2.846A10.015,10.015,0,0,0,87.5,93.5a9.726,9.726,0,0,0,.632,3.5,10.06,10.06,0,0,0-5.641,9.013Zm36.3-18.776c0,.112,0,.208-.009.32a10.055,10.055,0,0,0-4.574,2.628,1.252,1.252,0,1,0,1.8,1.736,7.506,7.506,0,1,1,9.719,11.385,1.252,1.252,0,0,0-.36,1.606,7.5,7.5,0,1,1-13.334,6.875,1.252,1.252,0,0,0-2.144-.176,7.483,7.483,0,0,1-11.576.8,1.252,1.252,0,0,0-1.618-.176,7.5,7.5,0,1,1-6.511-13.351,7.4,7.4,0,0,1,4.266-.129,1.252,1.252,0,1,0,.645-2.42A10.017,10.017,0,0,0,90.51,96.2,7.565,7.565,0,0,1,90,93.491a7.5,7.5,0,0,1,11.835-6.127,1.252,1.252,0,0,0,1.968-.9,7.509,7.509,0,0,1,14.979.768ZM98.763,88.493a6.246,6.246,0,0,0-6.044,4.613,1.251,1.251,0,1,0,2.411.672A3.75,3.75,0,0,1,98.763,91a1.252,1.252,0,0,0,0-2.5Zm9.109,8.224a8.446,8.446,0,0,0-4.711,6.731,1.244,1.244,0,1,0,2.462.354,6.018,6.018,0,0,1,3.325-4.777,5.047,5.047,0,0,1,5.344.614,1.242,1.242,0,1,0,1.479-1.995,7.532,7.532,0,0,0-7.9-.926Zm-18.145,4.86a5.991,5.991,0,0,0-.91,8.432,1.253,1.253,0,0,0,1.961-1.56,3.487,3.487,0,0,1,.5-4.909,1.251,1.251,0,1,0-1.553-1.963Zm32.7,4.716a1.253,1.253,0,0,0-1.222,1.577,2.5,2.5,0,0,1-3.068,3.066,1.254,1.254,0,1,0-.645,2.423,5.014,5.014,0,0,0,6.134-6.136A1.253,1.253,0,0,0,122.429,106.293Z" transform="translate(-76.983 -72.072)" fill="#75adc7"/>
          <path id="Path_3199" data-name="Path 3199" d="M200.371,13.663a1.253,1.253,0,0,0-.929-1.252,5.014,5.014,0,0,0-6.136,6.137,1.254,1.254,0,0,0,2.423-.648,2.5,2.5,0,0,1,3.066-3.066,1.253,1.253,0,0,0,1.577-1.171Z" transform="translate(-180.243 -11.424)" fill="#75adc7"/>
          <path id="Path_3200" data-name="Path 3200" d="M7.513,243.75A3.756,3.756,0,1,0,3.75,247.5,3.745,3.745,0,0,0,7.513,243.75ZM3.75,245a1.247,1.247,0,1,1,1.259-1.247A1.24,1.24,0,0,1,3.75,245" transform="translate(0 -223.978)" fill="#75adc7"/>
          <path id="Path_3201" data-name="Path 3201" d="M838.883,80.37h0a5.7,5.7,0,0,0-11.314.919,5.445,5.445,0,0,0,.061.777,5.668,5.668,0,0,0,7.122,8.792,5.559,5.559,0,0,0,1.582.228,5.651,5.651,0,0,0,2.55-10.716m-2.545,8.21h0a3.225,3.225,0,0,1-1.3-.286,1.251,1.251,0,0,0-1.379.232,3.215,3.215,0,0,1-2.208.878,3.142,3.142,0,0,1-1.746-5.785,1.252,1.252,0,0,0,.518-1.423,3.129,3.129,0,0,1-.149-.907,3.188,3.188,0,0,1,6.376-.027,1.269,1.269,0,0,0,.882,1.183,3.141,3.141,0,0,1-.993,6.134" transform="translate(-770.63 -70.585)" fill="#75adc7"/>
          <path id="Path_3202" data-name="Path 3202" d="M836.229,564.648a3.757,3.757,0,1,0,3.75,3.76,3.764,3.764,0,0,0-3.75-3.76m0,5.007a1.252,1.252,0,1,1,1.247-1.247,1.252,1.252,0,0,1-1.247,1.247" transform="translate(-776.894 -526.952)" fill="#75adc7"/>
          <path id="Path_3203" data-name="Path 3203" d="M553.7.612a5.028,5.028,0,0,0-5.014.117A1.254,1.254,0,0,0,550,2.865a2.5,2.5,0,0,1,3.8,2.08,1.252,1.252,0,1,0,2.5-.064A5,5,0,0,0,553.7.612Z" transform="translate(-511.493 0)" fill="#75adc7"/>
        </g>
      </g>
    </g>
  </g>
</svg>
