<svg xmlns="http://www.w3.org/2000/svg" xmlns:xlink="http://www.w3.org/1999/xlink" width="68" height="65.922" viewBox="0 0 68 65.922">
  <defs>
    <clipPath id="clip-path">
      <rect id="Rectangle_396" data-name="Rectangle 396" width="54.995" height="53" transform="translate(-3 -2)" fill="#76adc7"/>
    </clipPath>
  </defs>
  <g id="Group_1496" data-name="Group 1496" transform="translate(-1595 -5281.479)">
    <ellipse id="Ellipse_78" data-name="Ellipse 78" cx="34" cy="2.5" rx="34" ry="2.5" transform="translate(1595 5342.402)" fill="#7eb4a3" opacity="0.32"/>
    <g id="Group_1462" data-name="Group 1462" transform="translate(1599.517 5283.479)">
      <g id="Group_1461" data-name="Group 1461" clip-path="url(#clip-path)">
        <path id="Path_3197" data-name="Path 3197" d="M6.34,28.235l9.528,16.957-4.957,2.657L1.1,30.906Z" fill="#94c83f"/>
        <path id="Path_3186" data-name="Path 3186" d="M30.279,0a1.167,1.167,0,0,0-1.057,1.167V2.992a11.266,11.266,0,0,0-1.24.529L26.688,2.227a1.167,1.167,0,0,0-1.641,0l-3.628,3.61a1.167,1.167,0,0,0,0,1.659L22.7,8.771a11.427,11.427,0,0,0-.529,1.276H20.38a1.167,1.167,0,0,0-1.167,1.167v5.1a1.167,1.167,0,0,0,1.167,1.167h1.787a11.378,11.378,0,0,0,.529,1.258L21.419,20.02a1.167,1.167,0,0,0,0,1.659l3.628,3.61a1.167,1.167,0,0,0,1.641,0l1.258-1.258a11.27,11.27,0,0,0,1.276.529v1.8a1.166,1.166,0,0,0,1.167,1.167h5.123a1.167,1.167,0,0,0,1.167-1.167v-1.8a11.4,11.4,0,0,0,1.276-.511l1.24,1.24a1.167,1.167,0,0,0,1.641,0l3.61-3.61a1.167,1.167,0,0,0,.018-1.641L43.2,18.744a11.337,11.337,0,0,0,.529-1.258h1.787a1.167,1.167,0,0,0,1.167-1.167v-5.1a1.167,1.167,0,0,0-1.167-1.167H43.734A11.372,11.372,0,0,0,43.2,8.771l1.258-1.295a1.167,1.167,0,0,0-.018-1.641l-3.61-3.61a1.167,1.167,0,0,0-1.641,0L37.918,3.5a11.238,11.238,0,0,0-1.24-.511V1.169A1.167,1.167,0,0,0,35.512,0H30.389q-.055,0-.109,0Zm1.276,2.334h2.789V3.758a1.167,1.167,0,0,0,.875,1.13,8.929,8.929,0,0,1,2.37,1,1.167,1.167,0,0,0,1.422-.182l1-1,1.969,1.969-.985,1a1.167,1.167,0,0,0-.164,1.4,9.066,9.066,0,0,1,1,2.406,1.167,1.167,0,0,0,1.13.893h1.385v2.771H42.968a1.167,1.167,0,0,0-1.13.875,8.98,8.98,0,0,1-1,2.406,1.167,1.167,0,0,0,.164,1.4l.985,1-1.969,1.969-.966-.966a1.167,1.167,0,0,0-1.422-.164,9.075,9.075,0,0,1-2.407.984,1.167,1.167,0,0,0-.875,1.131v1.4H31.555v-1.4a1.166,1.166,0,0,0-.875-1.131,8.976,8.976,0,0,1-2.406-1,1.167,1.167,0,0,0-1.422.164l-.984.985L23.9,20.84l.985-.985a1.167,1.167,0,0,0,.182-1.422,9.018,9.018,0,0,1-1-2.406,1.167,1.167,0,0,0-1.13-.875H21.547V12.381h1.386a1.166,1.166,0,0,0,1.13-.893,9.1,9.1,0,0,1,1-2.406,1.167,1.167,0,0,0-.182-1.422L23.9,6.675l1.969-1.969,1.021,1a1.167,1.167,0,0,0,1.422.182,8.866,8.866,0,0,1,2.37-1,1.166,1.166,0,0,0,.875-1.131Zm1.4,5.779a5.661,5.661,0,1,0,5.651,5.652,5.677,5.677,0,0,0-5.651-5.652m0,2.334a3.327,3.327,0,0,1,0,6.654,3.327,3.327,0,1,1,0-6.654M16.388,26.875a10.055,10.055,0,0,0-5.123,1.458,1.167,1.167,0,1,0,1.185,2.006,7.722,7.722,0,0,1,3.938-1.131,8.344,8.344,0,0,1,5.706,2.261,1.167,1.167,0,0,0,.8.31l5.488-.036a1.3,1.3,0,0,1,1.039.346,1,1,0,0,1,.255.729c-.014.57-.252,1.13-1.294,1.13h-7.8a1.167,1.167,0,1,0,0,2.334h7.8a3.577,3.577,0,0,0,3.628-3.409,3.358,3.358,0,0,0-.912-2.406,3.717,3.717,0,0,0-2.716-1.058h-.018l-5.086.036a10.625,10.625,0,0,0-6.891-2.57Zm28.677.018a5.318,5.318,0,0,0-2.315.584L35.8,31.013a1.167,1.167,0,1,0,1.057,2.078l6.946-3.537a2.056,2.056,0,0,1,2.662.292c.435.654.22,1.575-.784,2.17l-.018.018L30.9,41H14.765L7.09,27.731A1.167,1.167,0,0,0,5.5,27.293L.582,30.138a1.157,1.157,0,0,0-.109.055,1.167,1.167,0,0,0-.31,1.531L9.789,48.4a1.167,1.167,0,0,0,1.6.438L16.3,46a1.167,1.167,0,0,0,.438-1.586l-.62-1.076H31.228a1.168,1.168,0,0,0,.62-.182L46.87,34.039l.018-.018a3.945,3.945,0,0,0,1.531-5.469,3.706,3.706,0,0,0-2.57-1.6,4.673,4.673,0,0,0-.784-.055ZM5.649,29.9l8.477,14.676-2.9,1.659L2.769,31.578Z" transform="translate(0 -0.001)" fill="#76adc7"/>
      </g>
    </g>
  </g>
</svg>
