<svg xmlns="http://www.w3.org/2000/svg" xmlns:xlink="http://www.w3.org/1999/xlink" width="69.7" height="63.922" viewBox="0 0 69.7 63.922">
  <defs>
    <clipPath id="clip-path">
      <rect id="Rectangle_395" data-name="Rectangle 395" width="68.208" height="44.757" fill="#76adc7"/>
    </clipPath>
  </defs>
  <g id="Group_1495" data-name="Group 1495" transform="translate(-1273.3 -5283.479)">
    <ellipse id="Ellipse_78" data-name="Ellipse 78" cx="34" cy="2.5" rx="34" ry="2.5" transform="translate(1275 5342.402)" fill="#7eb4a3" opacity="0.32"/>
    <g id="Group_1460" data-name="Group 1460" transform="translate(1273.3 5283.479)">
      <g id="Group_1459" data-name="Group 1459" clip-path="url(#clip-path)">
        <path id="Path_3196" data-name="Path 3196" d="M29.843,15.135l28.1,3.343L56.7,25.42l-3.714,5.714-6.571,1.914-9.043-.957L30.6,27.707l-2.271-6.1Z" fill="#94c83f"/>
        <path id="Path_3182" data-name="Path 3182" d="M67.14,749.953H1.066a1.066,1.066,0,0,0,0,2.131H67.14a1.066,1.066,0,1,0,0-2.131" transform="translate(0 -707.327)" fill="#76adc7"/>
        <path id="Path_3183" data-name="Path 3183" d="M970.153,513.129a6.935,6.935,0,1,0-2.031,4.9,6.927,6.927,0,0,0,2.031-4.9m-6.927,4.8h0a4.8,4.8,0,1,1,3.39-1.406,4.8,4.8,0,0,1-3.39,1.406Z" transform="translate(-901.945 -477.431)" fill="#76adc7"/>
        <path id="Path_3184" data-name="Path 3184" d="M44.761,34.6l7.522,1.02h0a9.011,9.011,0,0,1,.276-2.113l-1.94-.263h0a12.859,12.859,0,0,0,2.48-1.287,9.107,9.107,0,0,1,4.036-4.274,12.992,12.992,0,0,0,1.691-5.2l.9-8.612h0a2.15,2.15,0,0,0-1.9-2.361l-1.08-.115.227-2.171h0a2.149,2.149,0,0,0-1.9-2.361L50.779,6.41l.34-3.248h0A2.151,2.151,0,0,0,49.214.8L41.731.009A2.177,2.177,0,0,0,39.376,1.92l-.339,3.244L34.752,4.71A2.177,2.177,0,0,0,32.4,6.622L32.171,8.79l-1.077-.114h0a2.179,2.179,0,0,0-2.354,1.912l-.9,8.612a13.011,13.011,0,0,0,4.947,11.624l-3.455-.468L20.3,11.294a1.066,1.066,0,0,0-.868-.605l-2.889-.258h0a3.007,3.007,0,0,0-.7-1.554,3.19,3.19,0,0,0-2.209-1.1L9.421,7.465A3.186,3.186,0,0,0,6.188,9.5L1.22,9.059a1.066,1.066,0,1,0-.19,2.123l4.906.439A2.989,2.989,0,0,0,6.652,13.5a3.191,3.191,0,0,0,2.209,1.1l4.216.307c.081.006.162.009.242.009A3.163,3.163,0,0,0,16.4,12.557l2.237.2L27.652,31.79a1.065,1.065,0,0,0,.82.6l3.285.445L35.3,41.946a1.066,1.066,0,0,0,.774.657,1.054,1.054,0,0,0,.219.023,1.065,1.065,0,0,0,.754-.312ZM57.607,13.651l-.339,3.244-1.089-.115c0-.006,0-.012,0-.018l.337-3.227ZM43.352,15.4l.339-3.236,1.088.116-.339,3.238c0,.005,0,.01,0,.015l-1.091-.116c0-.006,0-.012,0-.018Zm10.7,1.153h0l-7.492-.813.8-7.55L54.85,9ZM41.506,2.128,49,2.941l-.342,3.244-1.075-.114a2.171,2.171,0,0,0-2.354,1.913L45,10.144l-1.087-.118.226-2.161h0a2.15,2.15,0,0,0-1.9-2.361L41.161,5.39Zm-6.978,4.7,7.493.813-.8,7.55-.106-.011-7.388-.8ZM30.87,10.8l1.08.115-.34,3.247c0,.005,0,.01,0,.015l-1.084-.115Zm-.91,8.626.342-3.244,3.212.341L41,17.314l16.044,1.7-.34,3.248a10.791,10.791,0,0,1-3.962,7.316c-3.464,2.8-7.509,2.709-11.675,2.014a16.091,16.091,0,0,1-6.147-1.864h0a11.095,11.095,0,0,1-4.963-10.307Zm-15.6-7.513h0a1,1,0,0,1-1.13.872l-4.216-.307a1,1,0,0,1-.961-1.009l.081-1h0a1.009,1.009,0,0,1,1.044-.876c.029,0,.057,0,.086,0l4.216.307h0a1.008,1.008,0,0,1,.961,1.008ZM34.171,33.163l7.936,1.076-5.413,5.413Z" transform="translate(-0.056 0)" fill="#76adc7"/>
        <path id="Path_3185" data-name="Path 3185" d="M1025.1,571.823a3.2,3.2,0,1,0,2.26.937,3.2,3.2,0,0,0-2.26-.937m0,4.263h0a1.067,1.067,0,1,1,.753-.312,1.066,1.066,0,0,1-.753.312Z" transform="translate(-963.816 -539.322)" fill="#76adc7"/>
      </g>
    </g>
  </g>
</svg>
