<svg xmlns="http://www.w3.org/2000/svg" xmlns:xlink="http://www.w3.org/1999/xlink" width="68.179" height="66.375" viewBox="0 0 68.179 66.375">
  <defs>
    <clipPath id="clip-path">
      <rect id="Rectangle_391" data-name="Rectangle 391" width="60.7" height="44.36" transform="translate(-3 -3)" fill="#75adc7" stroke="#75adc7" stroke-width="1"/>
    </clipPath>
  </defs>
  <g id="Group_1492" data-name="Group 1492" transform="translate(-314.821 -5281.026)">
    <circle id="Ellipse_85" data-name="Ellipse 85" cx="8" cy="8" r="8" transform="translate(350 5307)" fill="#94c83f"/>
    <g id="Group_1491" data-name="Group 1491">
      <ellipse id="Ellipse_78" data-name="Ellipse 78" cx="34" cy="2.5" rx="34" ry="2.5" transform="translate(315 5342.402)" fill="#7eb4a3" opacity="0.32"/>
      <g id="Group_1452" data-name="Group 1452" transform="translate(317.821 5284.026)">
        <g id="Group_1451" data-name="Group 1451" clip-path="url(#clip-path)">
          <path id="Path_3135" data-name="Path 3135" d="M6.691,14.962l.231.672-.672.231-.231-.672Zm-4.01,4.279a.355.355,0,1,1,0,.71H.355a.355.355,0,1,1,0-.71ZM1.06,18.213a.355.355,0,0,1,0-.71H4.772a.355.355,0,0,1,0,.71Zm7.142,2.2a.355.355,0,1,1,0,.71H3.456a.355.355,0,1,1,0-.71ZM31.894,4.261a.221.221,0,0,1-.314-.312,5.474,5.474,0,0,1,2.127-1.295,5.739,5.739,0,0,1,2.509-.261.222.222,0,1,1-.052.441,5.3,5.3,0,0,0-2.317.24,5.028,5.028,0,0,0-1.954,1.187Zm12.5,28.45a.222.222,0,1,1,.4.182,5.318,5.318,0,0,1-3.807,3.04.221.221,0,0,1-.082-.435,4.865,4.865,0,0,0,3.484-2.787ZM45.511,9.317a.355.355,0,1,1,0-.71,9.391,9.391,0,0,1,2.147.248,9.252,9.252,0,0,1,2.024.732.354.354,0,0,1-.316.633A8.544,8.544,0,0,0,47.5,9.545a8.684,8.684,0,0,0-1.986-.228Zm6.7,3.211a.354.354,0,1,1,.555-.441,8.924,8.924,0,0,1,1.437,2.6,8.844,8.844,0,0,1-.411,6.816,9.068,9.068,0,0,1-2.551,3.135.354.354,0,0,1-.436-.558,8.357,8.357,0,0,0,2.351-2.888,8.168,8.168,0,0,0,.377-6.273,8.218,8.218,0,0,0-1.323-2.394ZM33.129,34.553a.354.354,0,0,1,.611-.358,7,7,0,0,0,2.586,2.533,7.178,7.178,0,0,0,8.508-1.1A6.781,6.781,0,0,0,46.2,27.783a6.942,6.942,0,0,0-1.953-2.4.354.354,0,1,1,.436-.558,7.656,7.656,0,0,1,2.153,2.647,7.477,7.477,0,0,1-1.51,8.664,7.878,7.878,0,0,1-9.355,1.209,7.715,7.715,0,0,1-2.847-2.791ZM44.166,12.131a7.809,7.809,0,0,1,1.746,2.539,7.685,7.685,0,0,1-1.724,8.523,8.027,8.027,0,0,1-5.631,2.285.355.355,0,0,1,0-.71,7.317,7.317,0,0,0,5.134-2.079,6.986,6.986,0,0,0,1.569-7.741,7.086,7.086,0,0,0-1.4-2.114,8.955,8.955,0,0,1-1.073,1.706.354.354,0,1,1-.555-.441,8.215,8.215,0,0,0,1.334-2.4A8.168,8.168,0,0,0,41.548,3.14a8.6,8.6,0,0,0-11.654-.317,8.432,8.432,0,0,0-.932.958A8.309,8.309,0,0,0,28.2,4.868a.354.354,0,0,1-.611-.358,9.013,9.013,0,0,1,.83-1.182A9.213,9.213,0,0,1,32.275.59a9.342,9.342,0,0,1,9.769,2.045,8.863,8.863,0,0,1,2.2,9.3q-.036.1-.074.2Zm-9.54,19-.255.663-.663-.255.255-.663Zm-2.652-1.02-.255.663-.663-.255.255-.663Zm-2.652-1.02-.255.663L28.4,29.5l.255-.663Zm-2.652-1.02-.255.663-.663-.255.255-.663Zm-2.652-1.02-.255.663-.663-.255.255-.663Zm-2.652-1.02-.255.663-.663-.255.255-.663Zm-2.652-1.02-.255.663-.663-.255.255-.663Zm-2.652-1.02-.255.663-.663-.255.255-.663Zm-2.652-1.02-.255.663-.663-.255.255-.663Zm15.361,2-.217.676-.676-.217.217-.676ZM26.065,24.1l-.217.676-.676-.217.217-.676Zm-2.705-.869-.217.676-.676-.217.217-.676Zm-2.705-.869-.217.676-.676-.217.217-.676Zm-2.705-.869-.217.676-.676-.217.217-.676Zm-2.705-.869-.217.676-.676-.217.217-.676Zm-2.705-.869-.217.676-.676-.217.217-.676Zm-2.705-.869-.217.676-.676-.217.217-.676ZM28.45,12.017l.182.687-.687.182-.182-.687Zm-2.746.729.182.687-.687.182-.182-.687Zm-2.746.729.182.687-.687.182-.182-.687Zm-2.746.729.182.687-.687.182-.182-.687Zm-2.746.729.182.687-.687.182-.182-.687Zm-2.746.729.182.687-.687.182-.182-.687ZM33.555,5.706l.231.672-.672.231-.231-.672.672-.231Zm-2.687.926L31.1,7.3l-.672.231L30.2,6.863l.672-.231Zm-2.687.926.231.672-.672.231-.231-.672ZM25.5,8.483l.231.672-.672.231-.231-.672Zm-2.687.926.231.672-.672.231-.231-.672Zm-2.687.926.231.672-.672.231-.231-.672Zm-2.687.926.231.672L17,12.163l-.231-.672Zm-2.687.926.231.672-.672.231-.231-.672Zm-2.687.926.231.672-.672.231-.231-.672Zm-2.687.926.231.672-.672.231-.231-.672Z" transform="translate(0)" fill="#75adc7" stroke="#75adc7" stroke-width="1"/>
        </g>
      </g>
    </g>
  </g>
</svg>
