<svg xmlns="http://www.w3.org/2000/svg" width="15.341" height="17.531" viewBox="0 0 15.341 17.531">
  <g id="Group_237" data-name="Group 237" transform="translate(880.652 286.578)">
    <path id="Path_126" data-name="Path 126" d="M-865.311-269.047h-15.341v-1.232a.412.412,0,0,1,.411-.411h.668v-15.067a.82.82,0,0,1,.822-.822h11.54a.82.82,0,0,1,.822.822v15.067h.668a.412.412,0,0,1,.411.411Zm-8.766-1.678v-2.294a.412.412,0,0,1,.411-.411h1.37a.412.412,0,0,1,.411.411v2.294h3.852V-284.9l-9.879-.034-.017,14.211Zm-2.191-12.156a.412.412,0,0,1,.411-.411h1.37a.412.412,0,0,1,.411.411v1.37a.412.412,0,0,1-.411.411h-1.37a.412.412,0,0,1-.411-.411Zm0,4.657v-1.37a.412.412,0,0,1,.411-.411h1.37a.412.412,0,0,1,.411.411v1.37a.412.412,0,0,1-.411.411h-1.37A.412.412,0,0,1-876.269-278.224Zm1.781,3.7h-1.37a.412.412,0,0,1-.411-.411v-1.37a.412.412,0,0,1,.411-.411h1.37a.412.412,0,0,1,.411.411v1.37A.412.412,0,0,1-874.488-274.526Zm2.6-6.985v-1.37a.412.412,0,0,1,.411-.411h1.37a.412.412,0,0,1,.411.411v1.37a.412.412,0,0,1-.411.411h-1.37A.412.412,0,0,1-871.886-281.511Zm0,3.287v-1.37a.412.412,0,0,1,.411-.411h1.37a.412.412,0,0,1,.411.411v1.37a.412.412,0,0,1-.411.411h-1.37A.412.412,0,0,1-871.886-278.224Zm0,3.287v-1.37a.412.412,0,0,1,.411-.411h1.37a.412.412,0,0,1,.411.411v1.37a.412.412,0,0,1-.411.411h-1.37A.412.412,0,0,1-871.886-274.936Z" transform="translate(0 0)" fill="#fff"/>
  </g>
</svg>
