<svg xmlns="http://www.w3.org/2000/svg" xmlns:xlink="http://www.w3.org/1999/xlink" width="68" height="55.048" viewBox="0 0 68 55.048">
  <defs>
    <clipPath id="clip-path">
      <rect id="Rectangle_401" data-name="Rectangle 401" width="46.14" height="41.998" fill="#76adc7"/>
    </clipPath>
  </defs>
  <g id="Group_1485" data-name="Group 1485" transform="translate(-1456 -2483.452)">
    <ellipse id="Ellipse_83" data-name="Ellipse 83" cx="34" cy="2.5" rx="34" ry="2.5" transform="translate(1456 2533.5)" fill="#7eb4a3" opacity="0.32"/>
    <g id="Group_1175" data-name="Group 1175" transform="translate(1466.035 2483.456)">
      <g id="Group_1172" data-name="Group 1172" transform="translate(0 -0.004)">
        <rect id="Rectangle_409" data-name="Rectangle 409" width="3" height="41" transform="translate(42.965 0.548)" fill="#94c83f"/>
        <rect id="Rectangle_408" data-name="Rectangle 408" width="2.5" height="41" transform="translate(43.57 0.548) rotate(90)" fill="#94c83f"/>
        <rect id="Rectangle_407" data-name="Rectangle 407" width="4" height="41" transform="translate(-0.035 0.548)" fill="#94c83f"/>
        <g id="Group_1171" data-name="Group 1171" transform="translate(0 0)" clip-path="url(#clip-path)">
          <path id="Path_3036" data-name="Path 3036" d="M0,0H46.14v41.85H42.006V3.686H4.577V41.846H0ZM45.112,1.023H1.027v39.8H3.55V2.658H43.033V40.819h2.079Z" transform="translate(0 0.004)" fill="#76adc7"/>
          <path id="Path_3037" data-name="Path 3037" d="M122.522,115.312h17.741v37.265H122.522Zm16.714,1.027H123.55v35.211h15.687Zm2.071-1.027H158.9v37.265H141.307Zm16.566,1.027H142.334v35.211h15.539Z" transform="translate(-117.494 -110.578)" fill="#76adc7"/>
        </g>
      </g>
      <path id="Rectangle_402" data-name="Rectangle 402" d="M-12.514-12.514h2.506v5.169h-2.506Zm1.479,1.027h-.452v3.114h.452Z" transform="translate(16.063 21.976)" fill="#76adc7"/>
      <path id="Rectangle_403" data-name="Rectangle 403" d="M-12.514-12.514h2.506v5.169h-2.506Zm1.479,1.027h-.452v3.114h.452Z" transform="translate(16.063 42.091)" fill="#76adc7"/>
      <path id="Rectangle_404" data-name="Rectangle 404" d="M-12.514-12.514h2.654v5.169h-2.654Zm1.627,1.027h-.6v3.114h.6Z" transform="translate(52.893 42.091)" fill="#76adc7"/>
      <path id="Rectangle_405" data-name="Rectangle 405" d="M-12.514-12.514h2.654v5.169h-2.654Zm1.627,1.027h-.6v3.114h.6Z" transform="translate(52.893 21.976)" fill="#76adc7"/>
      <g id="Group_1174" data-name="Group 1174" transform="translate(0 -0.004)">
        <g id="Group_1173" data-name="Group 1173" transform="translate(0 0)" clip-path="url(#clip-path)">
          <path id="Path_3038" data-name="Path 3038" d="M423.467,493.775a1.845,1.845,0,1,1,1.845-1.845A1.847,1.847,0,0,1,423.467,493.775Zm0-2.662a.818.818,0,1,0,.817.818A.819.819,0,0,0,423.467,491.113Z" transform="translate(-404.317 -469.97)" fill="#76adc7"/>
          <path id="Path_3039" data-name="Path 3039" d="M621.665,493.775a1.845,1.845,0,1,1,1.845-1.845A1.847,1.847,0,0,1,621.665,493.775Zm0-2.662a.818.818,0,1,0,.818.818A.818.818,0,0,0,621.665,491.113Z" transform="translate(-594.38 -469.97)" fill="#76adc7"/>
        </g>
      </g>
    </g>
  </g>
</svg>
