<svg xmlns="http://www.w3.org/2000/svg" xmlns:xlink="http://www.w3.org/1999/xlink" width="68" height="59.658" viewBox="0 0 68 59.658">
  <defs>
    <clipPath id="clip-path">
      <rect id="Rectangle_397" data-name="Rectangle 397" width="51" height="51" transform="translate(0 0)" fill="#76adc7"/>
    </clipPath>
  </defs>
  <g id="Group_1483" data-name="Group 1483" transform="translate(-1022 -2478.842)">
    <ellipse id="Ellipse_83" data-name="Ellipse 83" cx="34" cy="2.5" rx="34" ry="2.5" transform="translate(1022 2533.5)" fill="#7eb4a3" opacity="0.32"/>
    <g id="Group_1168" data-name="Group 1168" transform="translate(1030.875 2478.846)">
      <rect id="Rectangle_398" data-name="Rectangle 398" width="44" height="9" transform="translate(3.125 5.154)" fill="#94c83f"/>
      <g id="Group_1167" data-name="Group 1167" transform="translate(0 -0.004)" clip-path="url(#clip-path)">
        <path id="Path_3018" data-name="Path 3018" d="M1118.9,1128.319h-.47a.773.773,0,0,0,0,1.546h.47a.773.773,0,0,0,0-1.546" transform="translate(-1068.668 -1078.867)" fill="#76adc7"/>
        <path id="Path_3019" data-name="Path 3019" d="M1.243,1128.319H.773a.773.773,0,0,0,0,1.546h.47a.773.773,0,1,0,0-1.546Z" transform="translate(0 -1078.867)" fill="#76adc7"/>
        <path id="Path_3020" data-name="Path 3020" d="M100.6,4.347V2.315A2.321,2.321,0,0,0,98.283,0H60.846a2.316,2.316,0,0,0-2.319,2.319V4.347a2.056,2.056,0,0,0-1.984,2.048v6.176a2.056,2.056,0,0,0,1.984,2.048V49.45h-.6a.773.773,0,1,0,0,1.546H101.2a.773.773,0,0,0,0-1.546h-.6V14.619a2.056,2.056,0,0,0,1.984-2.048V6.395A2.056,2.056,0,0,0,100.6,4.347Zm-39.755-2.8H98.283a.769.769,0,0,1,.773.773V4.339H60.073V2.315a.769.769,0,0,1,.773-.773ZM93.135,49.45H84.673a9.265,9.265,0,0,0,4.152-7.722c-.016-3.753-.948-6.622-2.837-8.773a.76.76,0,0,0-.8-.231.774.774,0,0,0-.542.629q-.108.729-.263,1.387a11.372,11.372,0,0,0-7.26-9.507.784.784,0,0,0-.8.119.765.765,0,0,0-.263.757,14.549,14.549,0,0,1,.375,5.435,3.467,3.467,0,0,0-1.825-.629.782.782,0,0,0-.8.622,12.351,12.351,0,0,1-1.674,4.67,9.138,9.138,0,0,0-1.841,5.53,9.277,9.277,0,0,0,4.144,7.722H65.986V22.667a1.636,1.636,0,0,1,1.634-1.634H91.5a1.636,1.636,0,0,1,1.634,1.634ZM77.867,27.313c3.658,2.064,5.307,5.578,5.148,10.925a.779.779,0,0,0,.55.765.764.764,0,0,0,.877-.327,11.483,11.483,0,0,0,1.371-3.315,12.693,12.693,0,0,1,1.458,6.367,7.7,7.7,0,0,1-3.076,6.152,4.935,4.935,0,0,0,.382-1.912,6.742,6.742,0,0,0-1.514-4.638.78.78,0,0,0-.8-.231.753.753,0,0,0-.183.08,5.954,5.954,0,0,0-3.586-3.817.777.777,0,0,0-1.06.877,8.808,8.808,0,0,1,.239,2.04,2.151,2.151,0,0,0-.566-.1.8.8,0,0,0-.8.622,6.058,6.058,0,0,1-.765,2.175,4.992,4.992,0,0,0-.614,4.909,7.709,7.709,0,0,1-1.562-10.75.182.182,0,0,1,.032-.04,12.652,12.652,0,0,0,1.777-4.51,2.4,2.4,0,0,1,1.028.861.784.784,0,0,0,.717.311.767.767,0,0,0,.622-.47,10.867,10.867,0,0,0,.335-5.968ZM79.2,39.553c1.235.988,1.769,2.478,1.705,4.661a.779.779,0,0,0,.55.765.764.764,0,0,0,.877-.327,5.227,5.227,0,0,0,.406-.789,7,7,0,0,1,.295,2.112,3.479,3.479,0,0,1-3.458,3.474h-.032a3.472,3.472,0,0,1-3.45-3.474,3.425,3.425,0,0,1,.669-2.048.165.165,0,0,0,.032-.048,6.1,6.1,0,0,0,.8-1.785A.775.775,0,0,0,78.9,41.9a5.11,5.11,0,0,0,.295-2.351Zm15.483,9.9V22.667a3.183,3.183,0,0,0-3.18-3.18H67.619a3.183,3.183,0,0,0-3.18,3.18V49.45H60.073V14.627H99.056V49.45Zm6.359-36.879a.514.514,0,0,1-.51.51H58.6a.514.514,0,0,1-.51-.51V6.395a.514.514,0,0,1,.51-.51h41.923a.514.514,0,0,1,.51.51v6.176Z" transform="translate(-54.065 0.004)" fill="#76adc7"/>
        <path id="Path_3021" data-name="Path 3021" d="M156.222,177.269a.769.769,0,0,0-.773.773v1.9a.773.773,0,0,0,1.546,0v-1.9a.779.779,0,0,0-.773-.773" transform="translate(-148.636 -169.5)" fill="#76adc7"/>
        <path id="Path_3022" data-name="Path 3022" d="M246.952,177.269a.769.769,0,0,0-.773.773v1.9a.773.773,0,0,0,1.546,0v-1.9a.769.769,0,0,0-.773-.773" transform="translate(-235.39 -169.5)" fill="#76adc7"/>
        <path id="Path_3023" data-name="Path 3023" d="M337.862,177.269a.769.769,0,0,0-.773.773v1.9a.773.773,0,1,0,1.546,0v-1.9a.774.774,0,0,0-.773-.773" transform="translate(-322.315 -169.5)" fill="#76adc7"/>
        <path id="Path_3024" data-name="Path 3024" d="M428.592,177.269a.769.769,0,0,0-.773.773v1.9a.773.773,0,0,0,1.546,0v-1.9a.769.769,0,0,0-.773-.773" transform="translate(-409.069 -169.5)" fill="#76adc7"/>
        <path id="Path_3025" data-name="Path 3025" d="M519.5,177.269a.769.769,0,0,0-.773.773v1.9a.773.773,0,1,0,1.546,0v-1.9a.769.769,0,0,0-.773-.773" transform="translate(-495.994 -169.5)" fill="#76adc7"/>
        <path id="Path_3026" data-name="Path 3026" d="M610.4,177.269a.769.769,0,0,0-.773.773v1.9a.773.773,0,1,0,1.546,0v-1.9a.774.774,0,0,0-.773-.773" transform="translate(-582.911 -169.5)" fill="#76adc7"/>
        <path id="Path_3027" data-name="Path 3027" d="M701.132,177.269a.769.769,0,0,0-.773.773v1.9a.773.773,0,1,0,1.546,0v-1.9a.769.769,0,0,0-.773-.773" transform="translate(-669.664 -169.5)" fill="#76adc7"/>
        <path id="Path_3028" data-name="Path 3028" d="M792.042,177.269a.769.769,0,0,0-.773.773v1.9a.773.773,0,0,0,1.546,0v-1.9a.774.774,0,0,0-.773-.773" transform="translate(-756.59 -169.5)" fill="#76adc7"/>
        <path id="Path_3029" data-name="Path 3029" d="M882.772,177.269a.769.769,0,0,0-.773.773v1.9a.773.773,0,1,0,1.546,0v-1.9a.769.769,0,0,0-.773-.773" transform="translate(-843.343 -169.5)" fill="#76adc7"/>
        <path id="Path_3030" data-name="Path 3030" d="M973.652,177.269a.769.769,0,0,0-.773.773v1.9a.773.773,0,1,0,1.546,0v-1.9a.769.769,0,0,0-.773-.773" transform="translate(-930.24 -169.5)" fill="#76adc7"/>
      </g>
    </g>
  </g>
</svg>
