<svg xmlns="http://www.w3.org/2000/svg" xmlns:xlink="http://www.w3.org/1999/xlink" width="68" height="58.658" viewBox="0 0 68 58.658">
  <defs>
    <clipPath id="clip-path">
      <rect id="Rectangle_320" data-name="Rectangle 320" width="45.679" height="45.679" fill="#76adc7" stroke="#76adc7" stroke-width="1"/>
    </clipPath>
  </defs>
  <g id="Group_1479" data-name="Group 1479" transform="translate(-154 -2479.842)">
    <ellipse id="Ellipse_83" data-name="Ellipse 83" cx="34" cy="2.5" rx="34" ry="2.5" transform="translate(154 2533.5)" fill="#7eb4a3" opacity="0.32"/>
    <g id="Group_573" data-name="Group 573" transform="translate(0 -115)">
      <circle id="Ellipse_84" data-name="Ellipse 84" cx="10.5" cy="10.5" r="10.5" transform="translate(177 2607)" fill="#94c83f"/>
      <g id="Group_572" data-name="Group 572" transform="translate(164.842 2594.844)">
        <g id="Group_572-2" data-name="Group 572" transform="translate(0 -0.002)" clip-path="url(#clip-path)">
          <path id="Path_2864" data-name="Path 2864" d="M45,45.677H.675A.675.675,0,0,1,0,45V.673A.675.675,0,0,1,.675,0H45a.675.675,0,0,1,.675.675V45a.675.675,0,0,1-.675.675M1.349,44.328H44.33V1.347H1.349Z" transform="translate(0 0.002)" fill="#76adc7" stroke="#76adc7" stroke-width="1"/>
          <path id="Path_2865" data-name="Path 2865" d="M202.566,217.7a15.13,15.13,0,1,1,15.13-15.13,15.147,15.147,0,0,1-15.13,15.13m0-28.911a13.781,13.781,0,1,0,13.781,13.781,13.8,13.8,0,0,0-13.781-13.781" transform="translate(-179.729 -179.733)" fill="#76adc7" stroke="#76adc7" stroke-width="1"/>
          <path id="Path_2866" data-name="Path 2866" d="M314.938,325.253a10.312,10.312,0,1,1,10.312-10.312,10.323,10.323,0,0,1-10.312,10.312m0-19.274a8.963,8.963,0,1,0,8.962,8.963,8.973,8.973,0,0,0-8.962-8.963" transform="translate(-292.1 -292.104)" fill="#76adc7" stroke="#76adc7" stroke-width="1"/>
          <path id="Path_2867" data-name="Path 2867" d="M399.055,405.515a.674.674,0,0,1-.675-.675,6.464,6.464,0,0,1,6.457-6.457.675.675,0,0,1,0,1.349,5.114,5.114,0,0,0-5.108,5.108.675.675,0,0,1-.675.675Z" transform="translate(-381.999 -382.003)" fill="#76adc7" stroke="#76adc7" stroke-width="1"/>
        </g>
      </g>
    </g>
  </g>
</svg>
